<mxfile host="app.diagrams.net" modified="2024-03-20T01:09:17.093Z" agent="Mozilla/5.0 (Windows NT 10.0; Win64; x64) AppleWebKit/537.36 (KHTML, like Gecko) Chrome/122.0.0.0 Safari/537.36 Edg/122.0.0.0" etag="4OembD3iPxmVrlYakp0E" version="24.0.7" type="device" pages="2">
  <diagram name="mct" id="Lec6M2flG7i1SyFeQsZV">
    <mxGraphModel dx="2114" dy="1745" grid="1" gridSize="10" guides="1" tooltips="1" connect="1" arrows="1" fold="1" page="1" pageScale="1" pageWidth="827" pageHeight="1169" math="0" shadow="0">
      <root>
        <mxCell id="0" />
        <mxCell id="1" parent="0" />
        <mxCell id="ozoaR8GwcusCpFTj8edA-2" value="User" style="swimlane;fontStyle=0;childLayout=stackLayout;horizontal=1;startSize=30;horizontalStack=0;resizeParent=1;resizeParentMax=0;resizeLast=0;collapsible=1;marginBottom=0;whiteSpace=wrap;html=1;" parent="1" vertex="1">
          <mxGeometry x="150" y="40" width="140" height="390" as="geometry" />
        </mxCell>
        <mxCell id="ozoaR8GwcusCpFTj8edA-3" value="idUser" style="text;strokeColor=none;fillColor=none;align=left;verticalAlign=middle;spacingLeft=4;spacingRight=4;overflow=hidden;points=[[0,0.5],[1,0.5]];portConstraint=eastwest;rotatable=0;whiteSpace=wrap;html=1;" parent="ozoaR8GwcusCpFTj8edA-2" vertex="1">
          <mxGeometry y="30" width="140" height="30" as="geometry" />
        </mxCell>
        <mxCell id="ozoaR8GwcusCpFTj8edA-4" value="nomUser" style="text;strokeColor=none;fillColor=none;align=left;verticalAlign=middle;spacingLeft=4;spacingRight=4;overflow=hidden;points=[[0,0.5],[1,0.5]];portConstraint=eastwest;rotatable=0;whiteSpace=wrap;html=1;" parent="ozoaR8GwcusCpFTj8edA-2" vertex="1">
          <mxGeometry y="60" width="140" height="30" as="geometry" />
        </mxCell>
        <mxCell id="ozoaR8GwcusCpFTj8edA-9" value="prenomUser" style="text;strokeColor=none;fillColor=none;align=left;verticalAlign=middle;spacingLeft=4;spacingRight=4;overflow=hidden;points=[[0,0.5],[1,0.5]];portConstraint=eastwest;rotatable=0;whiteSpace=wrap;html=1;" parent="ozoaR8GwcusCpFTj8edA-2" vertex="1">
          <mxGeometry y="90" width="140" height="30" as="geometry" />
        </mxCell>
        <mxCell id="ozoaR8GwcusCpFTj8edA-8" value="dateNaissUser" style="text;strokeColor=none;fillColor=none;align=left;verticalAlign=middle;spacingLeft=4;spacingRight=4;overflow=hidden;points=[[0,0.5],[1,0.5]];portConstraint=eastwest;rotatable=0;whiteSpace=wrap;html=1;" parent="ozoaR8GwcusCpFTj8edA-2" vertex="1">
          <mxGeometry y="120" width="140" height="30" as="geometry" />
        </mxCell>
        <mxCell id="ozoaR8GwcusCpFTj8edA-7" value="emailUser" style="text;strokeColor=none;fillColor=none;align=left;verticalAlign=middle;spacingLeft=4;spacingRight=4;overflow=hidden;points=[[0,0.5],[1,0.5]];portConstraint=eastwest;rotatable=0;whiteSpace=wrap;html=1;" parent="ozoaR8GwcusCpFTj8edA-2" vertex="1">
          <mxGeometry y="150" width="140" height="30" as="geometry" />
        </mxCell>
        <mxCell id="ozoaR8GwcusCpFTj8edA-6" value="adresseUser" style="text;strokeColor=none;fillColor=none;align=left;verticalAlign=middle;spacingLeft=4;spacingRight=4;overflow=hidden;points=[[0,0.5],[1,0.5]];portConstraint=eastwest;rotatable=0;whiteSpace=wrap;html=1;" parent="ozoaR8GwcusCpFTj8edA-2" vertex="1">
          <mxGeometry y="180" width="140" height="30" as="geometry" />
        </mxCell>
        <mxCell id="ozoaR8GwcusCpFTj8edA-5" value="genreUser" style="text;strokeColor=none;fillColor=none;align=left;verticalAlign=middle;spacingLeft=4;spacingRight=4;overflow=hidden;points=[[0,0.5],[1,0.5]];portConstraint=eastwest;rotatable=0;whiteSpace=wrap;html=1;" parent="ozoaR8GwcusCpFTj8edA-2" vertex="1">
          <mxGeometry y="210" width="140" height="30" as="geometry" />
        </mxCell>
        <mxCell id="EITushvifVS-LeQFOiSa-31" value="motPassUser" style="text;strokeColor=none;fillColor=none;align=left;verticalAlign=middle;spacingLeft=4;spacingRight=4;overflow=hidden;points=[[0,0.5],[1,0.5]];portConstraint=eastwest;rotatable=0;whiteSpace=wrap;html=1;" parent="ozoaR8GwcusCpFTj8edA-2" vertex="1">
          <mxGeometry y="240" width="140" height="30" as="geometry" />
        </mxCell>
        <mxCell id="YBYOb2V-Wy9qqlrGjkgp-21" value="imageUser" style="text;strokeColor=none;fillColor=none;align=left;verticalAlign=middle;spacingLeft=4;spacingRight=4;overflow=hidden;points=[[0,0.5],[1,0.5]];portConstraint=eastwest;rotatable=0;whiteSpace=wrap;html=1;" vertex="1" parent="ozoaR8GwcusCpFTj8edA-2">
          <mxGeometry y="270" width="140" height="30" as="geometry" />
        </mxCell>
        <mxCell id="EITushvifVS-LeQFOiSa-32" value="statut" style="text;strokeColor=none;fillColor=none;align=left;verticalAlign=middle;spacingLeft=4;spacingRight=4;overflow=hidden;points=[[0,0.5],[1,0.5]];portConstraint=eastwest;rotatable=0;whiteSpace=wrap;html=1;" parent="ozoaR8GwcusCpFTj8edA-2" vertex="1">
          <mxGeometry y="300" width="140" height="30" as="geometry" />
        </mxCell>
        <mxCell id="EITushvifVS-LeQFOiSa-33" value="dateAjout" style="text;strokeColor=none;fillColor=none;align=left;verticalAlign=middle;spacingLeft=4;spacingRight=4;overflow=hidden;points=[[0,0.5],[1,0.5]];portConstraint=eastwest;rotatable=0;whiteSpace=wrap;html=1;" parent="ozoaR8GwcusCpFTj8edA-2" vertex="1">
          <mxGeometry y="330" width="140" height="30" as="geometry" />
        </mxCell>
        <mxCell id="ozoaR8GwcusCpFTj8edA-10" value="dateModif" style="text;strokeColor=none;fillColor=none;align=left;verticalAlign=middle;spacingLeft=4;spacingRight=4;overflow=hidden;points=[[0,0.5],[1,0.5]];portConstraint=eastwest;rotatable=0;whiteSpace=wrap;html=1;" parent="ozoaR8GwcusCpFTj8edA-2" vertex="1">
          <mxGeometry y="360" width="140" height="30" as="geometry" />
        </mxCell>
        <mxCell id="ozoaR8GwcusCpFTj8edA-11" value="Profil" style="swimlane;fontStyle=0;childLayout=stackLayout;horizontal=1;startSize=30;horizontalStack=0;resizeParent=1;resizeParentMax=0;resizeLast=0;collapsible=1;marginBottom=0;whiteSpace=wrap;html=1;" parent="1" vertex="1">
          <mxGeometry x="150" y="510" width="140" height="210" as="geometry" />
        </mxCell>
        <mxCell id="ozoaR8GwcusCpFTj8edA-12" value="idProfil" style="text;strokeColor=none;fillColor=none;align=left;verticalAlign=middle;spacingLeft=4;spacingRight=4;overflow=hidden;points=[[0,0.5],[1,0.5]];portConstraint=eastwest;rotatable=0;whiteSpace=wrap;html=1;" parent="ozoaR8GwcusCpFTj8edA-11" vertex="1">
          <mxGeometry y="30" width="140" height="30" as="geometry" />
        </mxCell>
        <mxCell id="ozoaR8GwcusCpFTj8edA-13" value="typeProfil" style="text;strokeColor=none;fillColor=none;align=left;verticalAlign=middle;spacingLeft=4;spacingRight=4;overflow=hidden;points=[[0,0.5],[1,0.5]];portConstraint=eastwest;rotatable=0;whiteSpace=wrap;html=1;" parent="ozoaR8GwcusCpFTj8edA-11" vertex="1">
          <mxGeometry y="60" width="140" height="30" as="geometry" />
        </mxCell>
        <mxCell id="EITushvifVS-LeQFOiSa-28" value="descriptProfil" style="text;strokeColor=none;fillColor=none;align=left;verticalAlign=middle;spacingLeft=4;spacingRight=4;overflow=hidden;points=[[0,0.5],[1,0.5]];portConstraint=eastwest;rotatable=0;whiteSpace=wrap;html=1;" parent="ozoaR8GwcusCpFTj8edA-11" vertex="1">
          <mxGeometry y="90" width="140" height="30" as="geometry" />
        </mxCell>
        <mxCell id="EITushvifVS-LeQFOiSa-29" value="statut" style="text;strokeColor=none;fillColor=none;align=left;verticalAlign=middle;spacingLeft=4;spacingRight=4;overflow=hidden;points=[[0,0.5],[1,0.5]];portConstraint=eastwest;rotatable=0;whiteSpace=wrap;html=1;" parent="ozoaR8GwcusCpFTj8edA-11" vertex="1">
          <mxGeometry y="120" width="140" height="30" as="geometry" />
        </mxCell>
        <mxCell id="EITushvifVS-LeQFOiSa-30" value="dateAjout" style="text;strokeColor=none;fillColor=none;align=left;verticalAlign=middle;spacingLeft=4;spacingRight=4;overflow=hidden;points=[[0,0.5],[1,0.5]];portConstraint=eastwest;rotatable=0;whiteSpace=wrap;html=1;" parent="ozoaR8GwcusCpFTj8edA-11" vertex="1">
          <mxGeometry y="150" width="140" height="30" as="geometry" />
        </mxCell>
        <mxCell id="ozoaR8GwcusCpFTj8edA-14" value="dateModif" style="text;strokeColor=none;fillColor=none;align=left;verticalAlign=middle;spacingLeft=4;spacingRight=4;overflow=hidden;points=[[0,0.5],[1,0.5]];portConstraint=eastwest;rotatable=0;whiteSpace=wrap;html=1;" parent="ozoaR8GwcusCpFTj8edA-11" vertex="1">
          <mxGeometry y="180" width="140" height="30" as="geometry" />
        </mxCell>
        <mxCell id="ozoaR8GwcusCpFTj8edA-16" value="" style="endArrow=none;html=1;rounded=0;" parent="1" source="ozoaR8GwcusCpFTj8edA-2" target="ozoaR8GwcusCpFTj8edA-11" edge="1">
          <mxGeometry width="50" height="50" relative="1" as="geometry">
            <mxPoint x="520" y="360" as="sourcePoint" />
            <mxPoint x="570" y="310" as="targetPoint" />
          </mxGeometry>
        </mxCell>
        <mxCell id="-JztlYJ-ncZ7tDc-gEJn-27" value="userprofil" style="edgeLabel;html=1;align=center;verticalAlign=middle;resizable=0;points=[];" vertex="1" connectable="0" parent="ozoaR8GwcusCpFTj8edA-16">
          <mxGeometry x="-0.0909" y="-1" relative="1" as="geometry">
            <mxPoint as="offset" />
          </mxGeometry>
        </mxCell>
        <mxCell id="ozoaR8GwcusCpFTj8edA-17" value="Préférence" style="swimlane;fontStyle=0;childLayout=stackLayout;horizontal=1;startSize=30;horizontalStack=0;resizeParent=1;resizeParentMax=0;resizeLast=0;collapsible=1;marginBottom=0;whiteSpace=wrap;html=1;" parent="1" vertex="1">
          <mxGeometry x="-220" width="140" height="210" as="geometry" />
        </mxCell>
        <mxCell id="ozoaR8GwcusCpFTj8edA-18" value="idPref" style="text;strokeColor=none;fillColor=none;align=left;verticalAlign=middle;spacingLeft=4;spacingRight=4;overflow=hidden;points=[[0,0.5],[1,0.5]];portConstraint=eastwest;rotatable=0;whiteSpace=wrap;html=1;" parent="ozoaR8GwcusCpFTj8edA-17" vertex="1">
          <mxGeometry y="30" width="140" height="30" as="geometry" />
        </mxCell>
        <mxCell id="ozoaR8GwcusCpFTj8edA-19" value="languePref" style="text;strokeColor=none;fillColor=none;align=left;verticalAlign=middle;spacingLeft=4;spacingRight=4;overflow=hidden;points=[[0,0.5],[1,0.5]];portConstraint=eastwest;rotatable=0;whiteSpace=wrap;html=1;" parent="ozoaR8GwcusCpFTj8edA-17" vertex="1">
          <mxGeometry y="60" width="140" height="30" as="geometry" />
        </mxCell>
        <mxCell id="-JztlYJ-ncZ7tDc-gEJn-57" value="themePref" style="text;strokeColor=none;fillColor=none;align=left;verticalAlign=middle;spacingLeft=4;spacingRight=4;overflow=hidden;points=[[0,0.5],[1,0.5]];portConstraint=eastwest;rotatable=0;whiteSpace=wrap;html=1;" vertex="1" parent="ozoaR8GwcusCpFTj8edA-17">
          <mxGeometry y="90" width="140" height="30" as="geometry" />
        </mxCell>
        <mxCell id="-JztlYJ-ncZ7tDc-gEJn-58" value="statut" style="text;strokeColor=none;fillColor=none;align=left;verticalAlign=middle;spacingLeft=4;spacingRight=4;overflow=hidden;points=[[0,0.5],[1,0.5]];portConstraint=eastwest;rotatable=0;whiteSpace=wrap;html=1;" vertex="1" parent="ozoaR8GwcusCpFTj8edA-17">
          <mxGeometry y="120" width="140" height="30" as="geometry" />
        </mxCell>
        <mxCell id="-JztlYJ-ncZ7tDc-gEJn-59" value="dateAjout" style="text;strokeColor=none;fillColor=none;align=left;verticalAlign=middle;spacingLeft=4;spacingRight=4;overflow=hidden;points=[[0,0.5],[1,0.5]];portConstraint=eastwest;rotatable=0;whiteSpace=wrap;html=1;" vertex="1" parent="ozoaR8GwcusCpFTj8edA-17">
          <mxGeometry y="150" width="140" height="30" as="geometry" />
        </mxCell>
        <mxCell id="ozoaR8GwcusCpFTj8edA-20" value="dateModif" style="text;strokeColor=none;fillColor=none;align=left;verticalAlign=middle;spacingLeft=4;spacingRight=4;overflow=hidden;points=[[0,0.5],[1,0.5]];portConstraint=eastwest;rotatable=0;whiteSpace=wrap;html=1;" parent="ozoaR8GwcusCpFTj8edA-17" vertex="1">
          <mxGeometry y="180" width="140" height="30" as="geometry" />
        </mxCell>
        <mxCell id="ozoaR8GwcusCpFTj8edA-21" value="" style="endArrow=none;html=1;rounded=0;" parent="1" source="ozoaR8GwcusCpFTj8edA-17" target="ozoaR8GwcusCpFTj8edA-2" edge="1">
          <mxGeometry width="50" height="50" relative="1" as="geometry">
            <mxPoint x="90" y="340" as="sourcePoint" />
            <mxPoint x="140" y="290" as="targetPoint" />
          </mxGeometry>
        </mxCell>
        <mxCell id="ozoaR8GwcusCpFTj8edA-22" value="Produit" style="swimlane;fontStyle=0;childLayout=stackLayout;horizontal=1;startSize=30;horizontalStack=0;resizeParent=1;resizeParentMax=0;resizeLast=0;collapsible=1;marginBottom=0;whiteSpace=wrap;html=1;" parent="1" vertex="1">
          <mxGeometry x="620" y="510" width="140" height="300" as="geometry" />
        </mxCell>
        <mxCell id="ozoaR8GwcusCpFTj8edA-23" value="idProd" style="text;strokeColor=none;fillColor=none;align=left;verticalAlign=middle;spacingLeft=4;spacingRight=4;overflow=hidden;points=[[0,0.5],[1,0.5]];portConstraint=eastwest;rotatable=0;whiteSpace=wrap;html=1;" parent="ozoaR8GwcusCpFTj8edA-22" vertex="1">
          <mxGeometry y="30" width="140" height="30" as="geometry" />
        </mxCell>
        <mxCell id="ozoaR8GwcusCpFTj8edA-24" value="libelleProd" style="text;strokeColor=none;fillColor=none;align=left;verticalAlign=middle;spacingLeft=4;spacingRight=4;overflow=hidden;points=[[0,0.5],[1,0.5]];portConstraint=eastwest;rotatable=0;whiteSpace=wrap;html=1;" parent="ozoaR8GwcusCpFTj8edA-22" vertex="1">
          <mxGeometry y="60" width="140" height="30" as="geometry" />
        </mxCell>
        <mxCell id="EITushvifVS-LeQFOiSa-1" value="descriptProd" style="text;strokeColor=none;fillColor=none;align=left;verticalAlign=middle;spacingLeft=4;spacingRight=4;overflow=hidden;points=[[0,0.5],[1,0.5]];portConstraint=eastwest;rotatable=0;whiteSpace=wrap;html=1;" parent="ozoaR8GwcusCpFTj8edA-22" vertex="1">
          <mxGeometry y="90" width="140" height="30" as="geometry" />
        </mxCell>
        <mxCell id="EITushvifVS-LeQFOiSa-2" value="prixunitProd" style="text;strokeColor=none;fillColor=none;align=left;verticalAlign=middle;spacingLeft=4;spacingRight=4;overflow=hidden;points=[[0,0.5],[1,0.5]];portConstraint=eastwest;rotatable=0;whiteSpace=wrap;html=1;" parent="ozoaR8GwcusCpFTj8edA-22" vertex="1">
          <mxGeometry y="120" width="140" height="30" as="geometry" />
        </mxCell>
        <mxCell id="ozoaR8GwcusCpFTj8edA-25" value="reductPro" style="text;strokeColor=none;fillColor=none;align=left;verticalAlign=middle;spacingLeft=4;spacingRight=4;overflow=hidden;points=[[0,0.5],[1,0.5]];portConstraint=eastwest;rotatable=0;whiteSpace=wrap;html=1;" parent="ozoaR8GwcusCpFTj8edA-22" vertex="1">
          <mxGeometry y="150" width="140" height="30" as="geometry" />
        </mxCell>
        <mxCell id="EITushvifVS-LeQFOiSa-11" value="stockProd" style="text;strokeColor=none;fillColor=none;align=left;verticalAlign=middle;spacingLeft=4;spacingRight=4;overflow=hidden;points=[[0,0.5],[1,0.5]];portConstraint=eastwest;rotatable=0;whiteSpace=wrap;html=1;" parent="ozoaR8GwcusCpFTj8edA-22" vertex="1">
          <mxGeometry y="180" width="140" height="30" as="geometry" />
        </mxCell>
        <mxCell id="EITushvifVS-LeQFOiSa-12" value="statut" style="text;strokeColor=none;fillColor=none;align=left;verticalAlign=middle;spacingLeft=4;spacingRight=4;overflow=hidden;points=[[0,0.5],[1,0.5]];portConstraint=eastwest;rotatable=0;whiteSpace=wrap;html=1;" parent="ozoaR8GwcusCpFTj8edA-22" vertex="1">
          <mxGeometry y="210" width="140" height="30" as="geometry" />
        </mxCell>
        <mxCell id="EITushvifVS-LeQFOiSa-13" value="dateAjout" style="text;strokeColor=none;fillColor=none;align=left;verticalAlign=middle;spacingLeft=4;spacingRight=4;overflow=hidden;points=[[0,0.5],[1,0.5]];portConstraint=eastwest;rotatable=0;whiteSpace=wrap;html=1;" parent="ozoaR8GwcusCpFTj8edA-22" vertex="1">
          <mxGeometry y="240" width="140" height="30" as="geometry" />
        </mxCell>
        <mxCell id="EITushvifVS-LeQFOiSa-10" value="dateModif" style="text;strokeColor=none;fillColor=none;align=left;verticalAlign=middle;spacingLeft=4;spacingRight=4;overflow=hidden;points=[[0,0.5],[1,0.5]];portConstraint=eastwest;rotatable=0;whiteSpace=wrap;html=1;" parent="ozoaR8GwcusCpFTj8edA-22" vertex="1">
          <mxGeometry y="270" width="140" height="30" as="geometry" />
        </mxCell>
        <mxCell id="ozoaR8GwcusCpFTj8edA-26" value="" style="endArrow=none;html=1;rounded=0;" parent="1" source="-JztlYJ-ncZ7tDc-gEJn-15" target="ozoaR8GwcusCpFTj8edA-22" edge="1">
          <mxGeometry width="50" height="50" relative="1" as="geometry">
            <mxPoint x="580" y="650" as="sourcePoint" />
            <mxPoint x="630" y="600" as="targetPoint" />
          </mxGeometry>
        </mxCell>
        <mxCell id="ozoaR8GwcusCpFTj8edA-27" value="Tag" style="swimlane;fontStyle=0;childLayout=stackLayout;horizontal=1;startSize=30;horizontalStack=0;resizeParent=1;resizeParentMax=0;resizeLast=0;collapsible=1;marginBottom=0;whiteSpace=wrap;html=1;" parent="1" vertex="1">
          <mxGeometry x="900" y="440" width="140" height="180" as="geometry" />
        </mxCell>
        <mxCell id="ozoaR8GwcusCpFTj8edA-28" value="idTag" style="text;strokeColor=none;fillColor=none;align=left;verticalAlign=middle;spacingLeft=4;spacingRight=4;overflow=hidden;points=[[0,0.5],[1,0.5]];portConstraint=eastwest;rotatable=0;whiteSpace=wrap;html=1;" parent="ozoaR8GwcusCpFTj8edA-27" vertex="1">
          <mxGeometry y="30" width="140" height="30" as="geometry" />
        </mxCell>
        <mxCell id="ozoaR8GwcusCpFTj8edA-29" value="libelleTag" style="text;strokeColor=none;fillColor=none;align=left;verticalAlign=middle;spacingLeft=4;spacingRight=4;overflow=hidden;points=[[0,0.5],[1,0.5]];portConstraint=eastwest;rotatable=0;whiteSpace=wrap;html=1;" parent="ozoaR8GwcusCpFTj8edA-27" vertex="1">
          <mxGeometry y="60" width="140" height="30" as="geometry" />
        </mxCell>
        <mxCell id="EITushvifVS-LeQFOiSa-3" value="statut" style="text;strokeColor=none;fillColor=none;align=left;verticalAlign=middle;spacingLeft=4;spacingRight=4;overflow=hidden;points=[[0,0.5],[1,0.5]];portConstraint=eastwest;rotatable=0;whiteSpace=wrap;html=1;" parent="ozoaR8GwcusCpFTj8edA-27" vertex="1">
          <mxGeometry y="90" width="140" height="30" as="geometry" />
        </mxCell>
        <mxCell id="EITushvifVS-LeQFOiSa-4" value="dateAjout" style="text;strokeColor=none;fillColor=none;align=left;verticalAlign=middle;spacingLeft=4;spacingRight=4;overflow=hidden;points=[[0,0.5],[1,0.5]];portConstraint=eastwest;rotatable=0;whiteSpace=wrap;html=1;" parent="ozoaR8GwcusCpFTj8edA-27" vertex="1">
          <mxGeometry y="120" width="140" height="30" as="geometry" />
        </mxCell>
        <mxCell id="ozoaR8GwcusCpFTj8edA-30" value="dateModif" style="text;strokeColor=none;fillColor=none;align=left;verticalAlign=middle;spacingLeft=4;spacingRight=4;overflow=hidden;points=[[0,0.5],[1,0.5]];portConstraint=eastwest;rotatable=0;whiteSpace=wrap;html=1;" parent="ozoaR8GwcusCpFTj8edA-27" vertex="1">
          <mxGeometry y="150" width="140" height="30" as="geometry" />
        </mxCell>
        <mxCell id="ozoaR8GwcusCpFTj8edA-31" value="" style="endArrow=none;html=1;rounded=0;" parent="1" source="ozoaR8GwcusCpFTj8edA-27" target="ozoaR8GwcusCpFTj8edA-22" edge="1">
          <mxGeometry width="50" height="50" relative="1" as="geometry">
            <mxPoint x="740" y="860" as="sourcePoint" />
            <mxPoint x="790" y="810" as="targetPoint" />
          </mxGeometry>
        </mxCell>
        <mxCell id="-JztlYJ-ncZ7tDc-gEJn-7" value="produit tag" style="edgeLabel;html=1;align=center;verticalAlign=middle;resizable=0;points=[];" vertex="1" connectable="0" parent="ozoaR8GwcusCpFTj8edA-31">
          <mxGeometry x="0.0008" y="-2" relative="1" as="geometry">
            <mxPoint as="offset" />
          </mxGeometry>
        </mxCell>
        <mxCell id="ozoaR8GwcusCpFTj8edA-32" value="Sous-Catégorie" style="swimlane;fontStyle=0;childLayout=stackLayout;horizontal=1;startSize=30;horizontalStack=0;resizeParent=1;resizeParentMax=0;resizeLast=0;collapsible=1;marginBottom=0;whiteSpace=wrap;html=1;" parent="1" vertex="1">
          <mxGeometry x="900" y="645" width="140" height="180" as="geometry" />
        </mxCell>
        <mxCell id="ozoaR8GwcusCpFTj8edA-33" value="idSCateg" style="text;strokeColor=none;fillColor=none;align=left;verticalAlign=middle;spacingLeft=4;spacingRight=4;overflow=hidden;points=[[0,0.5],[1,0.5]];portConstraint=eastwest;rotatable=0;whiteSpace=wrap;html=1;" parent="ozoaR8GwcusCpFTj8edA-32" vertex="1">
          <mxGeometry y="30" width="140" height="30" as="geometry" />
        </mxCell>
        <mxCell id="ozoaR8GwcusCpFTj8edA-34" value="libelleSCateg" style="text;strokeColor=none;fillColor=none;align=left;verticalAlign=middle;spacingLeft=4;spacingRight=4;overflow=hidden;points=[[0,0.5],[1,0.5]];portConstraint=eastwest;rotatable=0;whiteSpace=wrap;html=1;" parent="ozoaR8GwcusCpFTj8edA-32" vertex="1">
          <mxGeometry y="60" width="140" height="30" as="geometry" />
        </mxCell>
        <mxCell id="EITushvifVS-LeQFOiSa-5" value="statut" style="text;strokeColor=none;fillColor=none;align=left;verticalAlign=middle;spacingLeft=4;spacingRight=4;overflow=hidden;points=[[0,0.5],[1,0.5]];portConstraint=eastwest;rotatable=0;whiteSpace=wrap;html=1;" parent="ozoaR8GwcusCpFTj8edA-32" vertex="1">
          <mxGeometry y="90" width="140" height="30" as="geometry" />
        </mxCell>
        <mxCell id="EITushvifVS-LeQFOiSa-6" value="dateAjout" style="text;strokeColor=none;fillColor=none;align=left;verticalAlign=middle;spacingLeft=4;spacingRight=4;overflow=hidden;points=[[0,0.5],[1,0.5]];portConstraint=eastwest;rotatable=0;whiteSpace=wrap;html=1;" parent="ozoaR8GwcusCpFTj8edA-32" vertex="1">
          <mxGeometry y="120" width="140" height="30" as="geometry" />
        </mxCell>
        <mxCell id="ozoaR8GwcusCpFTj8edA-35" value="dateModif" style="text;strokeColor=none;fillColor=none;align=left;verticalAlign=middle;spacingLeft=4;spacingRight=4;overflow=hidden;points=[[0,0.5],[1,0.5]];portConstraint=eastwest;rotatable=0;whiteSpace=wrap;html=1;" parent="ozoaR8GwcusCpFTj8edA-32" vertex="1">
          <mxGeometry y="150" width="140" height="30" as="geometry" />
        </mxCell>
        <mxCell id="ozoaR8GwcusCpFTj8edA-36" value="Catégorie" style="swimlane;fontStyle=0;childLayout=stackLayout;horizontal=1;startSize=30;horizontalStack=0;resizeParent=1;resizeParentMax=0;resizeLast=0;collapsible=1;marginBottom=0;whiteSpace=wrap;html=1;" parent="1" vertex="1">
          <mxGeometry x="740" y="890" width="140" height="210" as="geometry" />
        </mxCell>
        <mxCell id="ozoaR8GwcusCpFTj8edA-37" value="idCateg" style="text;strokeColor=none;fillColor=none;align=left;verticalAlign=middle;spacingLeft=4;spacingRight=4;overflow=hidden;points=[[0,0.5],[1,0.5]];portConstraint=eastwest;rotatable=0;whiteSpace=wrap;html=1;" parent="ozoaR8GwcusCpFTj8edA-36" vertex="1">
          <mxGeometry y="30" width="140" height="30" as="geometry" />
        </mxCell>
        <mxCell id="ozoaR8GwcusCpFTj8edA-38" value="libelleCateg" style="text;strokeColor=none;fillColor=none;align=left;verticalAlign=middle;spacingLeft=4;spacingRight=4;overflow=hidden;points=[[0,0.5],[1,0.5]];portConstraint=eastwest;rotatable=0;whiteSpace=wrap;html=1;" parent="ozoaR8GwcusCpFTj8edA-36" vertex="1">
          <mxGeometry y="60" width="140" height="30" as="geometry" />
        </mxCell>
        <mxCell id="EITushvifVS-LeQFOiSa-7" value="descriptCateg" style="text;strokeColor=none;fillColor=none;align=left;verticalAlign=middle;spacingLeft=4;spacingRight=4;overflow=hidden;points=[[0,0.5],[1,0.5]];portConstraint=eastwest;rotatable=0;whiteSpace=wrap;html=1;" parent="ozoaR8GwcusCpFTj8edA-36" vertex="1">
          <mxGeometry y="90" width="140" height="30" as="geometry" />
        </mxCell>
        <mxCell id="EITushvifVS-LeQFOiSa-8" value="statut" style="text;strokeColor=none;fillColor=none;align=left;verticalAlign=middle;spacingLeft=4;spacingRight=4;overflow=hidden;points=[[0,0.5],[1,0.5]];portConstraint=eastwest;rotatable=0;whiteSpace=wrap;html=1;" parent="ozoaR8GwcusCpFTj8edA-36" vertex="1">
          <mxGeometry y="120" width="140" height="30" as="geometry" />
        </mxCell>
        <mxCell id="EITushvifVS-LeQFOiSa-9" value="dateAjout" style="text;strokeColor=none;fillColor=none;align=left;verticalAlign=middle;spacingLeft=4;spacingRight=4;overflow=hidden;points=[[0,0.5],[1,0.5]];portConstraint=eastwest;rotatable=0;whiteSpace=wrap;html=1;" parent="ozoaR8GwcusCpFTj8edA-36" vertex="1">
          <mxGeometry y="150" width="140" height="30" as="geometry" />
        </mxCell>
        <mxCell id="ozoaR8GwcusCpFTj8edA-39" value="dateModif" style="text;strokeColor=none;fillColor=none;align=left;verticalAlign=middle;spacingLeft=4;spacingRight=4;overflow=hidden;points=[[0,0.5],[1,0.5]];portConstraint=eastwest;rotatable=0;whiteSpace=wrap;html=1;" parent="ozoaR8GwcusCpFTj8edA-36" vertex="1">
          <mxGeometry y="180" width="140" height="30" as="geometry" />
        </mxCell>
        <mxCell id="ozoaR8GwcusCpFTj8edA-40" value="" style="endArrow=none;html=1;rounded=0;" parent="1" source="ozoaR8GwcusCpFTj8edA-36" target="ozoaR8GwcusCpFTj8edA-32" edge="1">
          <mxGeometry width="50" height="50" relative="1" as="geometry">
            <mxPoint x="740" y="1120" as="sourcePoint" />
            <mxPoint x="790" y="1070" as="targetPoint" />
          </mxGeometry>
        </mxCell>
        <mxCell id="ozoaR8GwcusCpFTj8edA-41" value="" style="endArrow=none;html=1;rounded=0;" parent="1" source="ozoaR8GwcusCpFTj8edA-32" target="ozoaR8GwcusCpFTj8edA-22" edge="1">
          <mxGeometry width="50" height="50" relative="1" as="geometry">
            <mxPoint x="740" y="940" as="sourcePoint" />
            <mxPoint x="790" y="890" as="targetPoint" />
          </mxGeometry>
        </mxCell>
        <mxCell id="ozoaR8GwcusCpFTj8edA-42" value="Avis" style="swimlane;fontStyle=0;childLayout=stackLayout;horizontal=1;startSize=30;horizontalStack=0;resizeParent=1;resizeParentMax=0;resizeLast=0;collapsible=1;marginBottom=0;whiteSpace=wrap;html=1;" parent="1" vertex="1">
          <mxGeometry x="620" y="230" width="140" height="180" as="geometry" />
        </mxCell>
        <mxCell id="ozoaR8GwcusCpFTj8edA-43" value="idAvis" style="text;strokeColor=none;fillColor=none;align=left;verticalAlign=middle;spacingLeft=4;spacingRight=4;overflow=hidden;points=[[0,0.5],[1,0.5]];portConstraint=eastwest;rotatable=0;whiteSpace=wrap;html=1;" parent="ozoaR8GwcusCpFTj8edA-42" vertex="1">
          <mxGeometry y="30" width="140" height="30" as="geometry" />
        </mxCell>
        <mxCell id="ozoaR8GwcusCpFTj8edA-44" value="noteAvis" style="text;strokeColor=none;fillColor=none;align=left;verticalAlign=middle;spacingLeft=4;spacingRight=4;overflow=hidden;points=[[0,0.5],[1,0.5]];portConstraint=eastwest;rotatable=0;whiteSpace=wrap;html=1;" parent="ozoaR8GwcusCpFTj8edA-42" vertex="1">
          <mxGeometry y="60" width="140" height="30" as="geometry" />
        </mxCell>
        <mxCell id="EITushvifVS-LeQFOiSa-14" value="statut" style="text;strokeColor=none;fillColor=none;align=left;verticalAlign=middle;spacingLeft=4;spacingRight=4;overflow=hidden;points=[[0,0.5],[1,0.5]];portConstraint=eastwest;rotatable=0;whiteSpace=wrap;html=1;" parent="ozoaR8GwcusCpFTj8edA-42" vertex="1">
          <mxGeometry y="90" width="140" height="30" as="geometry" />
        </mxCell>
        <mxCell id="EITushvifVS-LeQFOiSa-15" value="dateAjout" style="text;strokeColor=none;fillColor=none;align=left;verticalAlign=middle;spacingLeft=4;spacingRight=4;overflow=hidden;points=[[0,0.5],[1,0.5]];portConstraint=eastwest;rotatable=0;whiteSpace=wrap;html=1;" parent="ozoaR8GwcusCpFTj8edA-42" vertex="1">
          <mxGeometry y="120" width="140" height="30" as="geometry" />
        </mxCell>
        <mxCell id="ozoaR8GwcusCpFTj8edA-45" value="dateModif" style="text;strokeColor=none;fillColor=none;align=left;verticalAlign=middle;spacingLeft=4;spacingRight=4;overflow=hidden;points=[[0,0.5],[1,0.5]];portConstraint=eastwest;rotatable=0;whiteSpace=wrap;html=1;" parent="ozoaR8GwcusCpFTj8edA-42" vertex="1">
          <mxGeometry y="150" width="140" height="30" as="geometry" />
        </mxCell>
        <mxCell id="ozoaR8GwcusCpFTj8edA-46" value="" style="endArrow=none;html=1;rounded=0;" parent="1" source="ozoaR8GwcusCpFTj8edA-42" target="ozoaR8GwcusCpFTj8edA-22" edge="1">
          <mxGeometry width="50" height="50" relative="1" as="geometry">
            <mxPoint x="330" y="830" as="sourcePoint" />
            <mxPoint x="380" y="780" as="targetPoint" />
          </mxGeometry>
        </mxCell>
        <mxCell id="ozoaR8GwcusCpFTj8edA-47" value="" style="endArrow=none;html=1;rounded=0;" parent="1" source="-JztlYJ-ncZ7tDc-gEJn-16" target="ozoaR8GwcusCpFTj8edA-11" edge="1">
          <mxGeometry width="50" height="50" relative="1" as="geometry">
            <mxPoint x="330" y="830" as="sourcePoint" />
            <mxPoint x="380" y="780" as="targetPoint" />
          </mxGeometry>
        </mxCell>
        <mxCell id="ozoaR8GwcusCpFTj8edA-48" value="Commande" style="swimlane;fontStyle=0;childLayout=stackLayout;horizontal=1;startSize=30;horizontalStack=0;resizeParent=1;resizeParentMax=0;resizeLast=0;collapsible=1;marginBottom=0;whiteSpace=wrap;html=1;" parent="1" vertex="1">
          <mxGeometry x="150" y="790" width="140" height="240" as="geometry" />
        </mxCell>
        <mxCell id="ozoaR8GwcusCpFTj8edA-53" value="idCom" style="text;strokeColor=none;fillColor=none;align=left;verticalAlign=middle;spacingLeft=4;spacingRight=4;overflow=hidden;points=[[0,0.5],[1,0.5]];portConstraint=eastwest;rotatable=0;whiteSpace=wrap;html=1;" parent="ozoaR8GwcusCpFTj8edA-48" vertex="1">
          <mxGeometry y="30" width="140" height="30" as="geometry" />
        </mxCell>
        <mxCell id="EITushvifVS-LeQFOiSa-23" value="qtCom" style="text;strokeColor=none;fillColor=none;align=left;verticalAlign=middle;spacingLeft=4;spacingRight=4;overflow=hidden;points=[[0,0.5],[1,0.5]];portConstraint=eastwest;rotatable=0;whiteSpace=wrap;html=1;" parent="ozoaR8GwcusCpFTj8edA-48" vertex="1">
          <mxGeometry y="60" width="140" height="30" as="geometry" />
        </mxCell>
        <mxCell id="EITushvifVS-LeQFOiSa-34" value="montantCom" style="text;strokeColor=none;fillColor=none;align=left;verticalAlign=middle;spacingLeft=4;spacingRight=4;overflow=hidden;points=[[0,0.5],[1,0.5]];portConstraint=eastwest;rotatable=0;whiteSpace=wrap;html=1;" parent="ozoaR8GwcusCpFTj8edA-48" vertex="1">
          <mxGeometry y="90" width="140" height="30" as="geometry" />
        </mxCell>
        <mxCell id="ozoaR8GwcusCpFTj8edA-51" value="fraisLivrCom" style="text;strokeColor=none;fillColor=none;align=left;verticalAlign=middle;spacingLeft=4;spacingRight=4;overflow=hidden;points=[[0,0.5],[1,0.5]];portConstraint=eastwest;rotatable=0;whiteSpace=wrap;html=1;" parent="ozoaR8GwcusCpFTj8edA-48" vertex="1">
          <mxGeometry y="120" width="140" height="30" as="geometry" />
        </mxCell>
        <mxCell id="EITushvifVS-LeQFOiSa-24" value="statut" style="text;strokeColor=none;fillColor=none;align=left;verticalAlign=middle;spacingLeft=4;spacingRight=4;overflow=hidden;points=[[0,0.5],[1,0.5]];portConstraint=eastwest;rotatable=0;whiteSpace=wrap;html=1;" parent="ozoaR8GwcusCpFTj8edA-48" vertex="1">
          <mxGeometry y="150" width="140" height="30" as="geometry" />
        </mxCell>
        <mxCell id="EITushvifVS-LeQFOiSa-25" value="dateAjout" style="text;strokeColor=none;fillColor=none;align=left;verticalAlign=middle;spacingLeft=4;spacingRight=4;overflow=hidden;points=[[0,0.5],[1,0.5]];portConstraint=eastwest;rotatable=0;whiteSpace=wrap;html=1;" parent="ozoaR8GwcusCpFTj8edA-48" vertex="1">
          <mxGeometry y="180" width="140" height="30" as="geometry" />
        </mxCell>
        <mxCell id="ozoaR8GwcusCpFTj8edA-50" value="dateModif" style="text;strokeColor=none;fillColor=none;align=left;verticalAlign=middle;spacingLeft=4;spacingRight=4;overflow=hidden;points=[[0,0.5],[1,0.5]];portConstraint=eastwest;rotatable=0;whiteSpace=wrap;html=1;" parent="ozoaR8GwcusCpFTj8edA-48" vertex="1">
          <mxGeometry y="210" width="140" height="30" as="geometry" />
        </mxCell>
        <mxCell id="ozoaR8GwcusCpFTj8edA-54" value="" style="endArrow=none;html=1;rounded=0;" parent="1" source="ozoaR8GwcusCpFTj8edA-48" target="ozoaR8GwcusCpFTj8edA-11" edge="1">
          <mxGeometry width="50" height="50" relative="1" as="geometry">
            <mxPoint x="190" y="740" as="sourcePoint" />
            <mxPoint x="240" y="690" as="targetPoint" />
          </mxGeometry>
        </mxCell>
        <mxCell id="ozoaR8GwcusCpFTj8edA-55" value="Livraison" style="swimlane;fontStyle=0;childLayout=stackLayout;horizontal=1;startSize=30;horizontalStack=0;resizeParent=1;resizeParentMax=0;resizeLast=0;collapsible=1;marginBottom=0;whiteSpace=wrap;html=1;" parent="1" vertex="1">
          <mxGeometry x="-110" y="890" width="140" height="270" as="geometry" />
        </mxCell>
        <mxCell id="ozoaR8GwcusCpFTj8edA-56" value="idLivr" style="text;strokeColor=none;fillColor=none;align=left;verticalAlign=middle;spacingLeft=4;spacingRight=4;overflow=hidden;points=[[0,0.5],[1,0.5]];portConstraint=eastwest;rotatable=0;whiteSpace=wrap;html=1;" parent="ozoaR8GwcusCpFTj8edA-55" vertex="1">
          <mxGeometry y="30" width="140" height="30" as="geometry" />
        </mxCell>
        <mxCell id="ozoaR8GwcusCpFTj8edA-57" value="modePaieLivr" style="text;strokeColor=none;fillColor=none;align=left;verticalAlign=middle;spacingLeft=4;spacingRight=4;overflow=hidden;points=[[0,0.5],[1,0.5]];portConstraint=eastwest;rotatable=0;whiteSpace=wrap;html=1;" parent="ozoaR8GwcusCpFTj8edA-55" vertex="1">
          <mxGeometry y="60" width="140" height="30" as="geometry" />
        </mxCell>
        <mxCell id="EITushvifVS-LeQFOiSa-35" value="montantTTLivr" style="text;strokeColor=none;fillColor=none;align=left;verticalAlign=middle;spacingLeft=4;spacingRight=4;overflow=hidden;points=[[0,0.5],[1,0.5]];portConstraint=eastwest;rotatable=0;whiteSpace=wrap;html=1;" parent="ozoaR8GwcusCpFTj8edA-55" vertex="1">
          <mxGeometry y="90" width="140" height="30" as="geometry" />
        </mxCell>
        <mxCell id="EITushvifVS-LeQFOiSa-36" value="adresseLivr" style="text;strokeColor=none;fillColor=none;align=left;verticalAlign=middle;spacingLeft=4;spacingRight=4;overflow=hidden;points=[[0,0.5],[1,0.5]];portConstraint=eastwest;rotatable=0;whiteSpace=wrap;html=1;" parent="ozoaR8GwcusCpFTj8edA-55" vertex="1">
          <mxGeometry y="120" width="140" height="30" as="geometry" />
        </mxCell>
        <mxCell id="EITushvifVS-LeQFOiSa-37" value="etatLivr" style="text;strokeColor=none;fillColor=none;align=left;verticalAlign=middle;spacingLeft=4;spacingRight=4;overflow=hidden;points=[[0,0.5],[1,0.5]];portConstraint=eastwest;rotatable=0;whiteSpace=wrap;html=1;" parent="ozoaR8GwcusCpFTj8edA-55" vertex="1">
          <mxGeometry y="150" width="140" height="30" as="geometry" />
        </mxCell>
        <mxCell id="EITushvifVS-LeQFOiSa-38" value="statut" style="text;strokeColor=none;fillColor=none;align=left;verticalAlign=middle;spacingLeft=4;spacingRight=4;overflow=hidden;points=[[0,0.5],[1,0.5]];portConstraint=eastwest;rotatable=0;whiteSpace=wrap;html=1;" parent="ozoaR8GwcusCpFTj8edA-55" vertex="1">
          <mxGeometry y="180" width="140" height="30" as="geometry" />
        </mxCell>
        <mxCell id="EITushvifVS-LeQFOiSa-39" value="dateAjout" style="text;strokeColor=none;fillColor=none;align=left;verticalAlign=middle;spacingLeft=4;spacingRight=4;overflow=hidden;points=[[0,0.5],[1,0.5]];portConstraint=eastwest;rotatable=0;whiteSpace=wrap;html=1;" parent="ozoaR8GwcusCpFTj8edA-55" vertex="1">
          <mxGeometry y="210" width="140" height="30" as="geometry" />
        </mxCell>
        <mxCell id="ozoaR8GwcusCpFTj8edA-58" value="dateModiff" style="text;strokeColor=none;fillColor=none;align=left;verticalAlign=middle;spacingLeft=4;spacingRight=4;overflow=hidden;points=[[0,0.5],[1,0.5]];portConstraint=eastwest;rotatable=0;whiteSpace=wrap;html=1;" parent="ozoaR8GwcusCpFTj8edA-55" vertex="1">
          <mxGeometry y="240" width="140" height="30" as="geometry" />
        </mxCell>
        <mxCell id="ozoaR8GwcusCpFTj8edA-59" value="" style="endArrow=none;html=1;rounded=0;" parent="1" source="ozoaR8GwcusCpFTj8edA-55" target="ozoaR8GwcusCpFTj8edA-48" edge="1">
          <mxGeometry width="50" height="50" relative="1" as="geometry">
            <mxPoint x="190" y="970" as="sourcePoint" />
            <mxPoint x="240" y="920" as="targetPoint" />
          </mxGeometry>
        </mxCell>
        <mxCell id="ozoaR8GwcusCpFTj8edA-60" value="Article" style="swimlane;fontStyle=0;childLayout=stackLayout;horizontal=1;startSize=30;horizontalStack=0;resizeParent=1;resizeParentMax=0;resizeLast=0;collapsible=1;marginBottom=0;whiteSpace=wrap;html=1;" parent="1" vertex="1">
          <mxGeometry x="-480" y="860" width="140" height="210" as="geometry" />
        </mxCell>
        <mxCell id="ozoaR8GwcusCpFTj8edA-61" value="idArt" style="text;strokeColor=none;fillColor=none;align=left;verticalAlign=middle;spacingLeft=4;spacingRight=4;overflow=hidden;points=[[0,0.5],[1,0.5]];portConstraint=eastwest;rotatable=0;whiteSpace=wrap;html=1;" parent="ozoaR8GwcusCpFTj8edA-60" vertex="1">
          <mxGeometry y="30" width="140" height="30" as="geometry" />
        </mxCell>
        <mxCell id="ozoaR8GwcusCpFTj8edA-62" value="titleArt" style="text;strokeColor=none;fillColor=none;align=left;verticalAlign=middle;spacingLeft=4;spacingRight=4;overflow=hidden;points=[[0,0.5],[1,0.5]];portConstraint=eastwest;rotatable=0;whiteSpace=wrap;html=1;" parent="ozoaR8GwcusCpFTj8edA-60" vertex="1">
          <mxGeometry y="60" width="140" height="30" as="geometry" />
        </mxCell>
        <mxCell id="ozoaR8GwcusCpFTj8edA-63" value="textArt" style="text;strokeColor=none;fillColor=none;align=left;verticalAlign=middle;spacingLeft=4;spacingRight=4;overflow=hidden;points=[[0,0.5],[1,0.5]];portConstraint=eastwest;rotatable=0;whiteSpace=wrap;html=1;" parent="ozoaR8GwcusCpFTj8edA-60" vertex="1">
          <mxGeometry y="90" width="140" height="30" as="geometry" />
        </mxCell>
        <mxCell id="EITushvifVS-LeQFOiSa-54" value="statut" style="text;strokeColor=none;fillColor=none;align=left;verticalAlign=middle;spacingLeft=4;spacingRight=4;overflow=hidden;points=[[0,0.5],[1,0.5]];portConstraint=eastwest;rotatable=0;whiteSpace=wrap;html=1;" parent="ozoaR8GwcusCpFTj8edA-60" vertex="1">
          <mxGeometry y="120" width="140" height="30" as="geometry" />
        </mxCell>
        <mxCell id="EITushvifVS-LeQFOiSa-55" value="dateAjout" style="text;strokeColor=none;fillColor=none;align=left;verticalAlign=middle;spacingLeft=4;spacingRight=4;overflow=hidden;points=[[0,0.5],[1,0.5]];portConstraint=eastwest;rotatable=0;whiteSpace=wrap;html=1;" parent="ozoaR8GwcusCpFTj8edA-60" vertex="1">
          <mxGeometry y="150" width="140" height="30" as="geometry" />
        </mxCell>
        <mxCell id="EITushvifVS-LeQFOiSa-56" value="dateModif" style="text;strokeColor=none;fillColor=none;align=left;verticalAlign=middle;spacingLeft=4;spacingRight=4;overflow=hidden;points=[[0,0.5],[1,0.5]];portConstraint=eastwest;rotatable=0;whiteSpace=wrap;html=1;" parent="ozoaR8GwcusCpFTj8edA-60" vertex="1">
          <mxGeometry y="180" width="140" height="30" as="geometry" />
        </mxCell>
        <mxCell id="ozoaR8GwcusCpFTj8edA-64" value="" style="endArrow=none;html=1;rounded=0;" parent="1" source="ozoaR8GwcusCpFTj8edA-60" target="ozoaR8GwcusCpFTj8edA-11" edge="1">
          <mxGeometry width="50" height="50" relative="1" as="geometry">
            <mxPoint x="-90" y="700" as="sourcePoint" />
            <mxPoint x="-40" y="650" as="targetPoint" />
          </mxGeometry>
        </mxCell>
        <mxCell id="-JztlYJ-ncZ7tDc-gEJn-35" value="auteur" style="edgeLabel;html=1;align=center;verticalAlign=middle;resizable=0;points=[];" vertex="1" connectable="0" parent="ozoaR8GwcusCpFTj8edA-64">
          <mxGeometry x="-0.0159" relative="1" as="geometry">
            <mxPoint as="offset" />
          </mxGeometry>
        </mxCell>
        <mxCell id="ozoaR8GwcusCpFTj8edA-65" value="Tags" style="swimlane;fontStyle=0;childLayout=stackLayout;horizontal=1;startSize=30;horizontalStack=0;resizeParent=1;resizeParentMax=0;resizeLast=0;collapsible=1;marginBottom=0;whiteSpace=wrap;html=1;" parent="1" vertex="1">
          <mxGeometry x="-810" y="790" width="140" height="180" as="geometry" />
        </mxCell>
        <mxCell id="ozoaR8GwcusCpFTj8edA-66" value="idTags" style="text;strokeColor=none;fillColor=none;align=left;verticalAlign=middle;spacingLeft=4;spacingRight=4;overflow=hidden;points=[[0,0.5],[1,0.5]];portConstraint=eastwest;rotatable=0;whiteSpace=wrap;html=1;" parent="ozoaR8GwcusCpFTj8edA-65" vertex="1">
          <mxGeometry y="30" width="140" height="30" as="geometry" />
        </mxCell>
        <mxCell id="ozoaR8GwcusCpFTj8edA-67" value="libelleTags" style="text;strokeColor=none;fillColor=none;align=left;verticalAlign=middle;spacingLeft=4;spacingRight=4;overflow=hidden;points=[[0,0.5],[1,0.5]];portConstraint=eastwest;rotatable=0;whiteSpace=wrap;html=1;" parent="ozoaR8GwcusCpFTj8edA-65" vertex="1">
          <mxGeometry y="60" width="140" height="30" as="geometry" />
        </mxCell>
        <mxCell id="EITushvifVS-LeQFOiSa-49" value="statut" style="text;strokeColor=none;fillColor=none;align=left;verticalAlign=middle;spacingLeft=4;spacingRight=4;overflow=hidden;points=[[0,0.5],[1,0.5]];portConstraint=eastwest;rotatable=0;whiteSpace=wrap;html=1;" parent="ozoaR8GwcusCpFTj8edA-65" vertex="1">
          <mxGeometry y="90" width="140" height="30" as="geometry" />
        </mxCell>
        <mxCell id="EITushvifVS-LeQFOiSa-50" value="dateAjout" style="text;strokeColor=none;fillColor=none;align=left;verticalAlign=middle;spacingLeft=4;spacingRight=4;overflow=hidden;points=[[0,0.5],[1,0.5]];portConstraint=eastwest;rotatable=0;whiteSpace=wrap;html=1;" parent="ozoaR8GwcusCpFTj8edA-65" vertex="1">
          <mxGeometry y="120" width="140" height="30" as="geometry" />
        </mxCell>
        <mxCell id="ozoaR8GwcusCpFTj8edA-68" value="dateModif" style="text;strokeColor=none;fillColor=none;align=left;verticalAlign=middle;spacingLeft=4;spacingRight=4;overflow=hidden;points=[[0,0.5],[1,0.5]];portConstraint=eastwest;rotatable=0;whiteSpace=wrap;html=1;" parent="ozoaR8GwcusCpFTj8edA-65" vertex="1">
          <mxGeometry y="150" width="140" height="30" as="geometry" />
        </mxCell>
        <mxCell id="ozoaR8GwcusCpFTj8edA-69" value="Categories" style="swimlane;fontStyle=0;childLayout=stackLayout;horizontal=1;startSize=30;horizontalStack=0;resizeParent=1;resizeParentMax=0;resizeLast=0;collapsible=1;marginBottom=0;whiteSpace=wrap;html=1;" parent="1" vertex="1">
          <mxGeometry x="-790" y="480" width="140" height="210" as="geometry" />
        </mxCell>
        <mxCell id="ozoaR8GwcusCpFTj8edA-70" value="idCateg" style="text;strokeColor=none;fillColor=none;align=left;verticalAlign=middle;spacingLeft=4;spacingRight=4;overflow=hidden;points=[[0,0.5],[1,0.5]];portConstraint=eastwest;rotatable=0;whiteSpace=wrap;html=1;" parent="ozoaR8GwcusCpFTj8edA-69" vertex="1">
          <mxGeometry y="30" width="140" height="30" as="geometry" />
        </mxCell>
        <mxCell id="ozoaR8GwcusCpFTj8edA-71" value="libelleCateg" style="text;strokeColor=none;fillColor=none;align=left;verticalAlign=middle;spacingLeft=4;spacingRight=4;overflow=hidden;points=[[0,0.5],[1,0.5]];portConstraint=eastwest;rotatable=0;whiteSpace=wrap;html=1;" parent="ozoaR8GwcusCpFTj8edA-69" vertex="1">
          <mxGeometry y="60" width="140" height="30" as="geometry" />
        </mxCell>
        <mxCell id="EITushvifVS-LeQFOiSa-51" value="descriptCateg" style="text;strokeColor=none;fillColor=none;align=left;verticalAlign=middle;spacingLeft=4;spacingRight=4;overflow=hidden;points=[[0,0.5],[1,0.5]];portConstraint=eastwest;rotatable=0;whiteSpace=wrap;html=1;" parent="ozoaR8GwcusCpFTj8edA-69" vertex="1">
          <mxGeometry y="90" width="140" height="30" as="geometry" />
        </mxCell>
        <mxCell id="EITushvifVS-LeQFOiSa-52" value="statut" style="text;strokeColor=none;fillColor=none;align=left;verticalAlign=middle;spacingLeft=4;spacingRight=4;overflow=hidden;points=[[0,0.5],[1,0.5]];portConstraint=eastwest;rotatable=0;whiteSpace=wrap;html=1;" parent="ozoaR8GwcusCpFTj8edA-69" vertex="1">
          <mxGeometry y="120" width="140" height="30" as="geometry" />
        </mxCell>
        <mxCell id="EITushvifVS-LeQFOiSa-53" value="dateAjout" style="text;strokeColor=none;fillColor=none;align=left;verticalAlign=middle;spacingLeft=4;spacingRight=4;overflow=hidden;points=[[0,0.5],[1,0.5]];portConstraint=eastwest;rotatable=0;whiteSpace=wrap;html=1;" parent="ozoaR8GwcusCpFTj8edA-69" vertex="1">
          <mxGeometry y="150" width="140" height="30" as="geometry" />
        </mxCell>
        <mxCell id="ozoaR8GwcusCpFTj8edA-72" value="dateModif" style="text;strokeColor=none;fillColor=none;align=left;verticalAlign=middle;spacingLeft=4;spacingRight=4;overflow=hidden;points=[[0,0.5],[1,0.5]];portConstraint=eastwest;rotatable=0;whiteSpace=wrap;html=1;" parent="ozoaR8GwcusCpFTj8edA-69" vertex="1">
          <mxGeometry y="180" width="140" height="30" as="geometry" />
        </mxCell>
        <mxCell id="ozoaR8GwcusCpFTj8edA-73" value="Commentaires" style="swimlane;fontStyle=0;childLayout=stackLayout;horizontal=1;startSize=30;horizontalStack=0;resizeParent=1;resizeParentMax=0;resizeLast=0;collapsible=1;marginBottom=0;whiteSpace=wrap;html=1;" parent="1" vertex="1">
          <mxGeometry x="-553" y="410" width="140" height="180" as="geometry" />
        </mxCell>
        <mxCell id="ozoaR8GwcusCpFTj8edA-74" value="idCom" style="text;strokeColor=none;fillColor=none;align=left;verticalAlign=middle;spacingLeft=4;spacingRight=4;overflow=hidden;points=[[0,0.5],[1,0.5]];portConstraint=eastwest;rotatable=0;whiteSpace=wrap;html=1;" parent="ozoaR8GwcusCpFTj8edA-73" vertex="1">
          <mxGeometry y="30" width="140" height="30" as="geometry" />
        </mxCell>
        <mxCell id="ozoaR8GwcusCpFTj8edA-75" value="descriptCom" style="text;strokeColor=none;fillColor=none;align=left;verticalAlign=middle;spacingLeft=4;spacingRight=4;overflow=hidden;points=[[0,0.5],[1,0.5]];portConstraint=eastwest;rotatable=0;whiteSpace=wrap;html=1;" parent="ozoaR8GwcusCpFTj8edA-73" vertex="1">
          <mxGeometry y="60" width="140" height="30" as="geometry" />
        </mxCell>
        <mxCell id="ozoaR8GwcusCpFTj8edA-76" value="statut" style="text;strokeColor=none;fillColor=none;align=left;verticalAlign=middle;spacingLeft=4;spacingRight=4;overflow=hidden;points=[[0,0.5],[1,0.5]];portConstraint=eastwest;rotatable=0;whiteSpace=wrap;html=1;" parent="ozoaR8GwcusCpFTj8edA-73" vertex="1">
          <mxGeometry y="90" width="140" height="30" as="geometry" />
        </mxCell>
        <mxCell id="EITushvifVS-LeQFOiSa-60" value="dateAjout" style="text;strokeColor=none;fillColor=none;align=left;verticalAlign=middle;spacingLeft=4;spacingRight=4;overflow=hidden;points=[[0,0.5],[1,0.5]];portConstraint=eastwest;rotatable=0;whiteSpace=wrap;html=1;" parent="ozoaR8GwcusCpFTj8edA-73" vertex="1">
          <mxGeometry y="120" width="140" height="30" as="geometry" />
        </mxCell>
        <mxCell id="EITushvifVS-LeQFOiSa-61" value="dateModif" style="text;strokeColor=none;fillColor=none;align=left;verticalAlign=middle;spacingLeft=4;spacingRight=4;overflow=hidden;points=[[0,0.5],[1,0.5]];portConstraint=eastwest;rotatable=0;whiteSpace=wrap;html=1;" parent="ozoaR8GwcusCpFTj8edA-73" vertex="1">
          <mxGeometry y="150" width="140" height="30" as="geometry" />
        </mxCell>
        <mxCell id="ozoaR8GwcusCpFTj8edA-77" value="Reactions" style="swimlane;fontStyle=0;childLayout=stackLayout;horizontal=1;startSize=30;horizontalStack=0;resizeParent=1;resizeParentMax=0;resizeLast=0;collapsible=1;marginBottom=0;whiteSpace=wrap;html=1;" parent="1" vertex="1">
          <mxGeometry x="-240" y="330" width="140" height="240" as="geometry" />
        </mxCell>
        <mxCell id="ozoaR8GwcusCpFTj8edA-78" value="idReact" style="text;strokeColor=none;fillColor=none;align=left;verticalAlign=middle;spacingLeft=4;spacingRight=4;overflow=hidden;points=[[0,0.5],[1,0.5]];portConstraint=eastwest;rotatable=0;whiteSpace=wrap;html=1;" parent="ozoaR8GwcusCpFTj8edA-77" vertex="1">
          <mxGeometry y="30" width="140" height="30" as="geometry" />
        </mxCell>
        <mxCell id="ozoaR8GwcusCpFTj8edA-79" value="natureReact" style="text;strokeColor=none;fillColor=none;align=left;verticalAlign=middle;spacingLeft=4;spacingRight=4;overflow=hidden;points=[[0,0.5],[1,0.5]];portConstraint=eastwest;rotatable=0;whiteSpace=wrap;html=1;" parent="ozoaR8GwcusCpFTj8edA-77" vertex="1">
          <mxGeometry y="60" width="140" height="30" as="geometry" />
        </mxCell>
        <mxCell id="ozoaR8GwcusCpFTj8edA-80" value="svgReact" style="text;strokeColor=none;fillColor=none;align=left;verticalAlign=middle;spacingLeft=4;spacingRight=4;overflow=hidden;points=[[0,0.5],[1,0.5]];portConstraint=eastwest;rotatable=0;whiteSpace=wrap;html=1;" parent="ozoaR8GwcusCpFTj8edA-77" vertex="1">
          <mxGeometry y="90" width="140" height="30" as="geometry" />
        </mxCell>
        <mxCell id="EITushvifVS-LeQFOiSa-42" value="descriptReact" style="text;strokeColor=none;fillColor=none;align=left;verticalAlign=middle;spacingLeft=4;spacingRight=4;overflow=hidden;points=[[0,0.5],[1,0.5]];portConstraint=eastwest;rotatable=0;whiteSpace=wrap;html=1;" parent="ozoaR8GwcusCpFTj8edA-77" vertex="1">
          <mxGeometry y="120" width="140" height="30" as="geometry" />
        </mxCell>
        <mxCell id="EITushvifVS-LeQFOiSa-44" value="statut" style="text;strokeColor=none;fillColor=none;align=left;verticalAlign=middle;spacingLeft=4;spacingRight=4;overflow=hidden;points=[[0,0.5],[1,0.5]];portConstraint=eastwest;rotatable=0;whiteSpace=wrap;html=1;" parent="ozoaR8GwcusCpFTj8edA-77" vertex="1">
          <mxGeometry y="150" width="140" height="30" as="geometry" />
        </mxCell>
        <mxCell id="EITushvifVS-LeQFOiSa-45" value="dateAjout" style="text;strokeColor=none;fillColor=none;align=left;verticalAlign=middle;spacingLeft=4;spacingRight=4;overflow=hidden;points=[[0,0.5],[1,0.5]];portConstraint=eastwest;rotatable=0;whiteSpace=wrap;html=1;" parent="ozoaR8GwcusCpFTj8edA-77" vertex="1">
          <mxGeometry y="180" width="140" height="30" as="geometry" />
        </mxCell>
        <mxCell id="EITushvifVS-LeQFOiSa-46" value="dateModif" style="text;strokeColor=none;fillColor=none;align=left;verticalAlign=middle;spacingLeft=4;spacingRight=4;overflow=hidden;points=[[0,0.5],[1,0.5]];portConstraint=eastwest;rotatable=0;whiteSpace=wrap;html=1;" parent="ozoaR8GwcusCpFTj8edA-77" vertex="1">
          <mxGeometry y="210" width="140" height="30" as="geometry" />
        </mxCell>
        <mxCell id="ozoaR8GwcusCpFTj8edA-81" value="Abonnement" style="swimlane;fontStyle=0;childLayout=stackLayout;horizontal=1;startSize=30;horizontalStack=0;resizeParent=1;resizeParentMax=0;resizeLast=0;collapsible=1;marginBottom=0;whiteSpace=wrap;html=1;" parent="1" vertex="1">
          <mxGeometry x="-230" y="590" width="140" height="180" as="geometry" />
        </mxCell>
        <mxCell id="ozoaR8GwcusCpFTj8edA-82" value="idAbon" style="text;strokeColor=none;fillColor=none;align=left;verticalAlign=middle;spacingLeft=4;spacingRight=4;overflow=hidden;points=[[0,0.5],[1,0.5]];portConstraint=eastwest;rotatable=0;whiteSpace=wrap;html=1;" parent="ozoaR8GwcusCpFTj8edA-81" vertex="1">
          <mxGeometry y="30" width="140" height="30" as="geometry" />
        </mxCell>
        <mxCell id="ozoaR8GwcusCpFTj8edA-83" value="etatNotifAbon" style="text;strokeColor=none;fillColor=none;align=left;verticalAlign=middle;spacingLeft=4;spacingRight=4;overflow=hidden;points=[[0,0.5],[1,0.5]];portConstraint=eastwest;rotatable=0;whiteSpace=wrap;html=1;" parent="ozoaR8GwcusCpFTj8edA-81" vertex="1">
          <mxGeometry y="60" width="140" height="30" as="geometry" />
        </mxCell>
        <mxCell id="EITushvifVS-LeQFOiSa-57" value="statut" style="text;strokeColor=none;fillColor=none;align=left;verticalAlign=middle;spacingLeft=4;spacingRight=4;overflow=hidden;points=[[0,0.5],[1,0.5]];portConstraint=eastwest;rotatable=0;whiteSpace=wrap;html=1;" parent="ozoaR8GwcusCpFTj8edA-81" vertex="1">
          <mxGeometry y="90" width="140" height="30" as="geometry" />
        </mxCell>
        <mxCell id="EITushvifVS-LeQFOiSa-58" value="dateAjout" style="text;strokeColor=none;fillColor=none;align=left;verticalAlign=middle;spacingLeft=4;spacingRight=4;overflow=hidden;points=[[0,0.5],[1,0.5]];portConstraint=eastwest;rotatable=0;whiteSpace=wrap;html=1;" parent="ozoaR8GwcusCpFTj8edA-81" vertex="1">
          <mxGeometry y="120" width="140" height="30" as="geometry" />
        </mxCell>
        <mxCell id="ozoaR8GwcusCpFTj8edA-84" value="dateModif" style="text;strokeColor=none;fillColor=none;align=left;verticalAlign=middle;spacingLeft=4;spacingRight=4;overflow=hidden;points=[[0,0.5],[1,0.5]];portConstraint=eastwest;rotatable=0;whiteSpace=wrap;html=1;" parent="ozoaR8GwcusCpFTj8edA-81" vertex="1">
          <mxGeometry y="150" width="140" height="30" as="geometry" />
        </mxCell>
        <mxCell id="ozoaR8GwcusCpFTj8edA-85" value="" style="endArrow=none;html=1;rounded=0;" parent="1" source="ozoaR8GwcusCpFTj8edA-81" target="ozoaR8GwcusCpFTj8edA-11" edge="1">
          <mxGeometry width="50" height="50" relative="1" as="geometry">
            <mxPoint x="-260" y="560" as="sourcePoint" />
            <mxPoint x="-160" y="390" as="targetPoint" />
          </mxGeometry>
        </mxCell>
        <mxCell id="ozoaR8GwcusCpFTj8edA-86" value="" style="endArrow=none;html=1;rounded=0;" parent="1" source="ozoaR8GwcusCpFTj8edA-81" target="ozoaR8GwcusCpFTj8edA-2" edge="1">
          <mxGeometry width="50" height="50" relative="1" as="geometry">
            <mxPoint x="-260" y="560" as="sourcePoint" />
            <mxPoint x="-210" y="510" as="targetPoint" />
          </mxGeometry>
        </mxCell>
        <mxCell id="ozoaR8GwcusCpFTj8edA-87" value="" style="endArrow=none;html=1;rounded=0;" parent="1" source="ozoaR8GwcusCpFTj8edA-77" target="ozoaR8GwcusCpFTj8edA-2" edge="1">
          <mxGeometry width="50" height="50" relative="1" as="geometry">
            <mxPoint y="620" as="sourcePoint" />
            <mxPoint x="50" y="570" as="targetPoint" />
          </mxGeometry>
        </mxCell>
        <mxCell id="ozoaR8GwcusCpFTj8edA-88" value="" style="endArrow=none;html=1;rounded=0;exitX=0.75;exitY=0;exitDx=0;exitDy=0;" parent="1" source="ozoaR8GwcusCpFTj8edA-60" target="ozoaR8GwcusCpFTj8edA-77" edge="1">
          <mxGeometry width="50" height="50" relative="1" as="geometry">
            <mxPoint x="-310" y="690" as="sourcePoint" />
            <mxPoint x="-260" y="640" as="targetPoint" />
          </mxGeometry>
        </mxCell>
        <mxCell id="ozoaR8GwcusCpFTj8edA-89" value="" style="endArrow=none;html=1;rounded=0;" parent="1" source="ozoaR8GwcusCpFTj8edA-60" target="ozoaR8GwcusCpFTj8edA-73" edge="1">
          <mxGeometry width="50" height="50" relative="1" as="geometry">
            <mxPoint x="-160" y="860" as="sourcePoint" />
            <mxPoint x="-110" y="810" as="targetPoint" />
          </mxGeometry>
        </mxCell>
        <mxCell id="ozoaR8GwcusCpFTj8edA-90" value="" style="endArrow=none;html=1;rounded=0;" parent="1" source="ozoaR8GwcusCpFTj8edA-65" target="ozoaR8GwcusCpFTj8edA-60" edge="1">
          <mxGeometry width="50" height="50" relative="1" as="geometry">
            <mxPoint x="-300" y="1040" as="sourcePoint" />
            <mxPoint x="-250" y="990" as="targetPoint" />
          </mxGeometry>
        </mxCell>
        <mxCell id="-JztlYJ-ncZ7tDc-gEJn-48" value="articletags" style="edgeLabel;html=1;align=center;verticalAlign=middle;resizable=0;points=[];" vertex="1" connectable="0" parent="ozoaR8GwcusCpFTj8edA-90">
          <mxGeometry x="-0.0605" y="-1" relative="1" as="geometry">
            <mxPoint as="offset" />
          </mxGeometry>
        </mxCell>
        <mxCell id="ozoaR8GwcusCpFTj8edA-91" value="" style="endArrow=none;html=1;rounded=0;" parent="1" source="ozoaR8GwcusCpFTj8edA-60" target="ozoaR8GwcusCpFTj8edA-69" edge="1">
          <mxGeometry width="50" height="50" relative="1" as="geometry">
            <mxPoint x="-300" y="1020" as="sourcePoint" />
            <mxPoint x="-250" y="970" as="targetPoint" />
          </mxGeometry>
        </mxCell>
        <mxCell id="ozoaR8GwcusCpFTj8edA-92" value="Reponses" style="swimlane;fontStyle=0;childLayout=stackLayout;horizontal=1;startSize=30;horizontalStack=0;resizeParent=1;resizeParentMax=0;resizeLast=0;collapsible=1;marginBottom=0;whiteSpace=wrap;html=1;" parent="1" vertex="1">
          <mxGeometry x="-553" y="140" width="140" height="180" as="geometry" />
        </mxCell>
        <mxCell id="ozoaR8GwcusCpFTj8edA-93" value="idRep" style="text;strokeColor=none;fillColor=none;align=left;verticalAlign=middle;spacingLeft=4;spacingRight=4;overflow=hidden;points=[[0,0.5],[1,0.5]];portConstraint=eastwest;rotatable=0;whiteSpace=wrap;html=1;" parent="ozoaR8GwcusCpFTj8edA-92" vertex="1">
          <mxGeometry y="30" width="140" height="30" as="geometry" />
        </mxCell>
        <mxCell id="ozoaR8GwcusCpFTj8edA-94" value="libelleRep" style="text;strokeColor=none;fillColor=none;align=left;verticalAlign=middle;spacingLeft=4;spacingRight=4;overflow=hidden;points=[[0,0.5],[1,0.5]];portConstraint=eastwest;rotatable=0;whiteSpace=wrap;html=1;" parent="ozoaR8GwcusCpFTj8edA-92" vertex="1">
          <mxGeometry y="60" width="140" height="30" as="geometry" />
        </mxCell>
        <mxCell id="EITushvifVS-LeQFOiSa-47" value="statut" style="text;strokeColor=none;fillColor=none;align=left;verticalAlign=middle;spacingLeft=4;spacingRight=4;overflow=hidden;points=[[0,0.5],[1,0.5]];portConstraint=eastwest;rotatable=0;whiteSpace=wrap;html=1;" parent="ozoaR8GwcusCpFTj8edA-92" vertex="1">
          <mxGeometry y="90" width="140" height="30" as="geometry" />
        </mxCell>
        <mxCell id="EITushvifVS-LeQFOiSa-48" value="dateAjout" style="text;strokeColor=none;fillColor=none;align=left;verticalAlign=middle;spacingLeft=4;spacingRight=4;overflow=hidden;points=[[0,0.5],[1,0.5]];portConstraint=eastwest;rotatable=0;whiteSpace=wrap;html=1;" parent="ozoaR8GwcusCpFTj8edA-92" vertex="1">
          <mxGeometry y="120" width="140" height="30" as="geometry" />
        </mxCell>
        <mxCell id="ozoaR8GwcusCpFTj8edA-95" value="dateModif" style="text;strokeColor=none;fillColor=none;align=left;verticalAlign=middle;spacingLeft=4;spacingRight=4;overflow=hidden;points=[[0,0.5],[1,0.5]];portConstraint=eastwest;rotatable=0;whiteSpace=wrap;html=1;" parent="ozoaR8GwcusCpFTj8edA-92" vertex="1">
          <mxGeometry y="150" width="140" height="30" as="geometry" />
        </mxCell>
        <mxCell id="ozoaR8GwcusCpFTj8edA-96" value="" style="endArrow=none;html=1;rounded=0;" parent="1" source="ozoaR8GwcusCpFTj8edA-73" target="ozoaR8GwcusCpFTj8edA-92" edge="1">
          <mxGeometry width="50" height="50" relative="1" as="geometry">
            <mxPoint x="-300" y="460" as="sourcePoint" />
            <mxPoint x="-330" y="260" as="targetPoint" />
          </mxGeometry>
        </mxCell>
        <mxCell id="ozoaR8GwcusCpFTj8edA-97" value="" style="endArrow=none;html=1;rounded=0;" parent="1" source="ozoaR8GwcusCpFTj8edA-92" target="ozoaR8GwcusCpFTj8edA-2" edge="1">
          <mxGeometry width="50" height="50" relative="1" as="geometry">
            <mxPoint x="-300" y="460" as="sourcePoint" />
            <mxPoint x="-250" y="410" as="targetPoint" />
          </mxGeometry>
        </mxCell>
        <mxCell id="ozoaR8GwcusCpFTj8edA-98" value="" style="endArrow=none;html=1;rounded=0;" parent="1" source="ozoaR8GwcusCpFTj8edA-73" target="ozoaR8GwcusCpFTj8edA-2" edge="1">
          <mxGeometry width="50" height="50" relative="1" as="geometry">
            <mxPoint x="-100" y="430" as="sourcePoint" />
            <mxPoint x="-50" y="380" as="targetPoint" />
            <Array as="points">
              <mxPoint x="-260" y="330" />
            </Array>
          </mxGeometry>
        </mxCell>
        <mxCell id="EITushvifVS-LeQFOiSa-18" value="CommandeProduit" style="swimlane;fontStyle=0;childLayout=stackLayout;horizontal=1;startSize=30;horizontalStack=0;resizeParent=1;resizeParentMax=0;resizeLast=0;collapsible=1;marginBottom=0;whiteSpace=wrap;html=1;" parent="1" vertex="1">
          <mxGeometry x="380" y="670" width="140" height="150" as="geometry" />
        </mxCell>
        <mxCell id="EITushvifVS-LeQFOiSa-19" value="idComProd" style="text;strokeColor=none;fillColor=none;align=left;verticalAlign=middle;spacingLeft=4;spacingRight=4;overflow=hidden;points=[[0,0.5],[1,0.5]];portConstraint=eastwest;rotatable=0;whiteSpace=wrap;html=1;" parent="EITushvifVS-LeQFOiSa-18" vertex="1">
          <mxGeometry y="30" width="140" height="30" as="geometry" />
        </mxCell>
        <mxCell id="EITushvifVS-LeQFOiSa-22" value="statut" style="text;strokeColor=none;fillColor=none;align=left;verticalAlign=middle;spacingLeft=4;spacingRight=4;overflow=hidden;points=[[0,0.5],[1,0.5]];portConstraint=eastwest;rotatable=0;whiteSpace=wrap;html=1;" parent="EITushvifVS-LeQFOiSa-18" vertex="1">
          <mxGeometry y="60" width="140" height="30" as="geometry" />
        </mxCell>
        <mxCell id="EITushvifVS-LeQFOiSa-21" value="dateAjout" style="text;strokeColor=none;fillColor=none;align=left;verticalAlign=middle;spacingLeft=4;spacingRight=4;overflow=hidden;points=[[0,0.5],[1,0.5]];portConstraint=eastwest;rotatable=0;whiteSpace=wrap;html=1;" parent="EITushvifVS-LeQFOiSa-18" vertex="1">
          <mxGeometry y="90" width="140" height="30" as="geometry" />
        </mxCell>
        <mxCell id="EITushvifVS-LeQFOiSa-20" value="dateModif" style="text;strokeColor=none;fillColor=none;align=left;verticalAlign=middle;spacingLeft=4;spacingRight=4;overflow=hidden;points=[[0,0.5],[1,0.5]];portConstraint=eastwest;rotatable=0;whiteSpace=wrap;html=1;" parent="EITushvifVS-LeQFOiSa-18" vertex="1">
          <mxGeometry y="120" width="140" height="30" as="geometry" />
        </mxCell>
        <mxCell id="EITushvifVS-LeQFOiSa-26" value="" style="endArrow=none;html=1;rounded=0;" parent="1" source="ozoaR8GwcusCpFTj8edA-48" target="EITushvifVS-LeQFOiSa-18" edge="1">
          <mxGeometry width="50" height="50" relative="1" as="geometry">
            <mxPoint x="390" y="1000" as="sourcePoint" />
            <mxPoint x="440" y="950" as="targetPoint" />
          </mxGeometry>
        </mxCell>
        <mxCell id="EITushvifVS-LeQFOiSa-27" value="" style="endArrow=none;html=1;rounded=0;" parent="1" source="EITushvifVS-LeQFOiSa-18" target="ozoaR8GwcusCpFTj8edA-22" edge="1">
          <mxGeometry width="50" height="50" relative="1" as="geometry">
            <mxPoint x="390" y="970" as="sourcePoint" />
            <mxPoint x="440" y="920" as="targetPoint" />
          </mxGeometry>
        </mxCell>
        <mxCell id="-JztlYJ-ncZ7tDc-gEJn-1" value="1,1" style="text;html=1;align=center;verticalAlign=middle;resizable=0;points=[];autosize=1;strokeColor=none;fillColor=none;" vertex="1" parent="1">
          <mxGeometry x="910" y="825" width="40" height="30" as="geometry" />
        </mxCell>
        <mxCell id="-JztlYJ-ncZ7tDc-gEJn-2" value="1,*" style="text;html=1;align=center;verticalAlign=middle;resizable=0;points=[];autosize=1;strokeColor=none;fillColor=none;" vertex="1" parent="1">
          <mxGeometry x="880" y="880" width="40" height="30" as="geometry" />
        </mxCell>
        <mxCell id="-JztlYJ-ncZ7tDc-gEJn-3" value="1,*" style="text;html=1;align=center;verticalAlign=middle;resizable=0;points=[];autosize=1;strokeColor=none;fillColor=none;" vertex="1" parent="1">
          <mxGeometry x="860" y="720" width="40" height="30" as="geometry" />
        </mxCell>
        <mxCell id="-JztlYJ-ncZ7tDc-gEJn-4" value="1,1" style="text;html=1;align=center;verticalAlign=middle;resizable=0;points=[];autosize=1;strokeColor=none;fillColor=none;" vertex="1" parent="1">
          <mxGeometry x="760" y="690" width="40" height="30" as="geometry" />
        </mxCell>
        <mxCell id="-JztlYJ-ncZ7tDc-gEJn-5" value="1,*" style="text;html=1;align=center;verticalAlign=middle;resizable=0;points=[];autosize=1;strokeColor=none;fillColor=none;" vertex="1" parent="1">
          <mxGeometry x="860" y="530" width="40" height="30" as="geometry" />
        </mxCell>
        <mxCell id="-JztlYJ-ncZ7tDc-gEJn-6" value="1,*" style="text;html=1;align=center;verticalAlign=middle;resizable=0;points=[];autosize=1;strokeColor=none;fillColor=none;" vertex="1" parent="1">
          <mxGeometry x="760" y="590" width="40" height="30" as="geometry" />
        </mxCell>
        <mxCell id="-JztlYJ-ncZ7tDc-gEJn-9" value="0,*" style="text;html=1;align=center;verticalAlign=middle;resizable=0;points=[];autosize=1;strokeColor=none;fillColor=none;" vertex="1" parent="1">
          <mxGeometry x="690" y="480" width="40" height="30" as="geometry" />
        </mxCell>
        <mxCell id="-JztlYJ-ncZ7tDc-gEJn-10" value="1,1" style="text;html=1;align=center;verticalAlign=middle;resizable=0;points=[];autosize=1;strokeColor=none;fillColor=none;" vertex="1" parent="1">
          <mxGeometry x="690" y="410" width="40" height="30" as="geometry" />
        </mxCell>
        <mxCell id="-JztlYJ-ncZ7tDc-gEJn-11" value="0,*" style="text;html=1;align=center;verticalAlign=middle;resizable=0;points=[];autosize=1;strokeColor=none;fillColor=none;" vertex="1" parent="1">
          <mxGeometry x="580" y="665" width="40" height="30" as="geometry" />
        </mxCell>
        <mxCell id="-JztlYJ-ncZ7tDc-gEJn-12" value="1,*" style="text;html=1;align=center;verticalAlign=middle;resizable=0;points=[];autosize=1;strokeColor=none;fillColor=none;" vertex="1" parent="1">
          <mxGeometry x="290" y="810" width="40" height="30" as="geometry" />
        </mxCell>
        <mxCell id="-JztlYJ-ncZ7tDc-gEJn-18" value="" style="endArrow=none;html=1;rounded=0;" edge="1" parent="1" source="ozoaR8GwcusCpFTj8edA-42" target="-JztlYJ-ncZ7tDc-gEJn-17">
          <mxGeometry width="50" height="50" relative="1" as="geometry">
            <mxPoint x="620" y="361" as="sourcePoint" />
            <mxPoint x="290" y="554" as="targetPoint" />
          </mxGeometry>
        </mxCell>
        <mxCell id="-JztlYJ-ncZ7tDc-gEJn-17" value="1,1" style="text;html=1;align=center;verticalAlign=middle;resizable=0;points=[];autosize=1;strokeColor=none;fillColor=none;" vertex="1" parent="1">
          <mxGeometry x="570" y="360" width="40" height="30" as="geometry" />
        </mxCell>
        <mxCell id="-JztlYJ-ncZ7tDc-gEJn-19" value="" style="endArrow=none;html=1;rounded=0;" edge="1" parent="1" source="-JztlYJ-ncZ7tDc-gEJn-17" target="-JztlYJ-ncZ7tDc-gEJn-16">
          <mxGeometry width="50" height="50" relative="1" as="geometry">
            <mxPoint x="570" y="387" as="sourcePoint" />
            <mxPoint x="290" y="553" as="targetPoint" />
          </mxGeometry>
        </mxCell>
        <mxCell id="-JztlYJ-ncZ7tDc-gEJn-16" value="0,*" style="text;html=1;align=center;verticalAlign=middle;resizable=0;points=[];autosize=1;strokeColor=none;fillColor=none;" vertex="1" parent="1">
          <mxGeometry x="300" y="520" width="40" height="30" as="geometry" />
        </mxCell>
        <mxCell id="-JztlYJ-ncZ7tDc-gEJn-20" value="" style="endArrow=none;html=1;rounded=0;" edge="1" parent="1" source="ozoaR8GwcusCpFTj8edA-11" target="-JztlYJ-ncZ7tDc-gEJn-14">
          <mxGeometry width="50" height="50" relative="1" as="geometry">
            <mxPoint x="290" y="605" as="sourcePoint" />
            <mxPoint x="620" y="650" as="targetPoint" />
          </mxGeometry>
        </mxCell>
        <mxCell id="-JztlYJ-ncZ7tDc-gEJn-14" value="0,*" style="text;html=1;align=center;verticalAlign=middle;resizable=0;points=[];autosize=1;strokeColor=none;fillColor=none;" vertex="1" parent="1">
          <mxGeometry x="310" y="590" width="40" height="30" as="geometry" />
        </mxCell>
        <mxCell id="-JztlYJ-ncZ7tDc-gEJn-23" value="" style="endArrow=none;html=1;rounded=0;" edge="1" parent="1" source="-JztlYJ-ncZ7tDc-gEJn-14" target="-JztlYJ-ncZ7tDc-gEJn-15">
          <mxGeometry width="50" height="50" relative="1" as="geometry">
            <mxPoint x="350" y="608" as="sourcePoint" />
            <mxPoint x="620" y="649" as="targetPoint" />
          </mxGeometry>
        </mxCell>
        <mxCell id="-JztlYJ-ncZ7tDc-gEJn-24" value="vendeur&lt;div&gt;possède&lt;/div&gt;" style="edgeLabel;html=1;align=center;verticalAlign=middle;resizable=0;points=[];" vertex="1" connectable="0" parent="-JztlYJ-ncZ7tDc-gEJn-23">
          <mxGeometry x="-0.0635" relative="1" as="geometry">
            <mxPoint as="offset" />
          </mxGeometry>
        </mxCell>
        <mxCell id="-JztlYJ-ncZ7tDc-gEJn-15" value="1,1" style="text;html=1;align=center;verticalAlign=middle;resizable=0;points=[];autosize=1;strokeColor=none;fillColor=none;" vertex="1" parent="1">
          <mxGeometry x="570" y="630" width="40" height="30" as="geometry" />
        </mxCell>
        <mxCell id="-JztlYJ-ncZ7tDc-gEJn-25" value="1,*" style="text;html=1;align=center;verticalAlign=middle;resizable=0;points=[];autosize=1;strokeColor=none;fillColor=none;" vertex="1" parent="1">
          <mxGeometry x="220" y="400" width="40" height="30" as="geometry" />
        </mxCell>
        <mxCell id="-JztlYJ-ncZ7tDc-gEJn-26" value="1,*" style="text;html=1;align=center;verticalAlign=middle;resizable=0;points=[];autosize=1;strokeColor=none;fillColor=none;" vertex="1" parent="1">
          <mxGeometry x="220" y="480" width="40" height="30" as="geometry" />
        </mxCell>
        <mxCell id="-JztlYJ-ncZ7tDc-gEJn-28" value="1,*" style="text;html=1;align=center;verticalAlign=middle;resizable=0;points=[];autosize=1;strokeColor=none;fillColor=none;" vertex="1" parent="1">
          <mxGeometry x="30" y="950" width="40" height="30" as="geometry" />
        </mxCell>
        <mxCell id="-JztlYJ-ncZ7tDc-gEJn-29" value="1,1" style="text;html=1;align=center;verticalAlign=middle;resizable=0;points=[];autosize=1;strokeColor=none;fillColor=none;" vertex="1" parent="1">
          <mxGeometry x="110" y="910" width="40" height="30" as="geometry" />
        </mxCell>
        <mxCell id="-JztlYJ-ncZ7tDc-gEJn-30" value="0,*" style="text;html=1;align=center;verticalAlign=middle;resizable=0;points=[];autosize=1;strokeColor=none;fillColor=none;" vertex="1" parent="1">
          <mxGeometry x="110" y="600" width="40" height="30" as="geometry" />
        </mxCell>
        <mxCell id="-JztlYJ-ncZ7tDc-gEJn-31" value="0,*" style="text;html=1;align=center;verticalAlign=middle;resizable=0;points=[];autosize=1;strokeColor=none;fillColor=none;" vertex="1" parent="1">
          <mxGeometry x="110" y="305" width="40" height="30" as="geometry" />
        </mxCell>
        <mxCell id="-JztlYJ-ncZ7tDc-gEJn-32" value="1,1" style="text;html=1;align=center;verticalAlign=middle;resizable=0;points=[];autosize=1;strokeColor=none;fillColor=none;" vertex="1" parent="1">
          <mxGeometry x="-90" y="640" width="40" height="30" as="geometry" />
        </mxCell>
        <mxCell id="-JztlYJ-ncZ7tDc-gEJn-33" value="1,1" style="text;html=1;align=center;verticalAlign=middle;resizable=0;points=[];autosize=1;strokeColor=none;fillColor=none;" vertex="1" parent="1">
          <mxGeometry x="-100" y="550" width="40" height="30" as="geometry" />
        </mxCell>
        <mxCell id="-JztlYJ-ncZ7tDc-gEJn-36" value="0,*" style="text;html=1;align=center;verticalAlign=middle;resizable=0;points=[];autosize=1;strokeColor=none;fillColor=none;" vertex="1" parent="1">
          <mxGeometry x="110" y="635" width="40" height="30" as="geometry" />
        </mxCell>
        <mxCell id="-JztlYJ-ncZ7tDc-gEJn-37" value="1,1" style="text;html=1;align=center;verticalAlign=middle;resizable=0;points=[];autosize=1;strokeColor=none;fillColor=none;" vertex="1" parent="1">
          <mxGeometry x="-340" y="880" width="40" height="30" as="geometry" />
        </mxCell>
        <mxCell id="-JztlYJ-ncZ7tDc-gEJn-38" value="1,1" style="text;html=1;align=center;verticalAlign=middle;resizable=0;points=[];autosize=1;strokeColor=none;fillColor=none;" vertex="1" parent="1">
          <mxGeometry x="-280" y="560" width="40" height="30" as="geometry" />
        </mxCell>
        <mxCell id="-JztlYJ-ncZ7tDc-gEJn-39" value="0,*" style="text;html=1;align=center;verticalAlign=middle;resizable=0;points=[];autosize=1;strokeColor=none;fillColor=none;" vertex="1" parent="1">
          <mxGeometry x="-400" y="825" width="40" height="30" as="geometry" />
        </mxCell>
        <mxCell id="-JztlYJ-ncZ7tDc-gEJn-40" value="1,1" style="text;html=1;align=center;verticalAlign=middle;resizable=0;points=[];autosize=1;strokeColor=none;fillColor=none;" vertex="1" parent="1">
          <mxGeometry x="-100" y="370" width="40" height="30" as="geometry" />
        </mxCell>
        <mxCell id="-JztlYJ-ncZ7tDc-gEJn-41" value="0,*" style="text;html=1;align=center;verticalAlign=middle;resizable=0;points=[];autosize=1;strokeColor=none;fillColor=none;" vertex="1" parent="1">
          <mxGeometry x="110" y="260" width="40" height="30" as="geometry" />
        </mxCell>
        <mxCell id="-JztlYJ-ncZ7tDc-gEJn-42" value="1,1" style="text;html=1;align=center;verticalAlign=middle;resizable=0;points=[];autosize=1;strokeColor=none;fillColor=none;" vertex="1" parent="1">
          <mxGeometry x="-510" y="590" width="40" height="30" as="geometry" />
        </mxCell>
        <mxCell id="-JztlYJ-ncZ7tDc-gEJn-43" value="0,*" style="text;html=1;align=center;verticalAlign=middle;resizable=0;points=[];autosize=1;strokeColor=none;fillColor=none;" vertex="1" parent="1">
          <mxGeometry x="-470" y="830" width="40" height="30" as="geometry" />
        </mxCell>
        <mxCell id="-JztlYJ-ncZ7tDc-gEJn-44" value="1,*" style="text;html=1;align=center;verticalAlign=middle;resizable=0;points=[];autosize=1;strokeColor=none;fillColor=none;" vertex="1" parent="1">
          <mxGeometry x="-650" y="645" width="40" height="30" as="geometry" />
        </mxCell>
        <mxCell id="-JztlYJ-ncZ7tDc-gEJn-45" value="1,1" style="text;html=1;align=center;verticalAlign=middle;resizable=0;points=[];autosize=1;strokeColor=none;fillColor=none;" vertex="1" parent="1">
          <mxGeometry x="-510" y="830" width="40" height="30" as="geometry" />
        </mxCell>
        <mxCell id="-JztlYJ-ncZ7tDc-gEJn-46" value="1,*" style="text;html=1;align=center;verticalAlign=middle;resizable=0;points=[];autosize=1;strokeColor=none;fillColor=none;" vertex="1" parent="1">
          <mxGeometry x="-670" y="865" width="40" height="30" as="geometry" />
        </mxCell>
        <mxCell id="-JztlYJ-ncZ7tDc-gEJn-47" value="1,*" style="text;html=1;align=center;verticalAlign=middle;resizable=0;points=[];autosize=1;strokeColor=none;fillColor=none;" vertex="1" parent="1">
          <mxGeometry x="-520" y="910" width="40" height="30" as="geometry" />
        </mxCell>
        <mxCell id="-JztlYJ-ncZ7tDc-gEJn-49" value="0,*" style="text;html=1;align=center;verticalAlign=middle;resizable=0;points=[];autosize=1;strokeColor=none;fillColor=none;" vertex="1" parent="1">
          <mxGeometry x="220" y="720" width="40" height="30" as="geometry" />
        </mxCell>
        <mxCell id="-JztlYJ-ncZ7tDc-gEJn-50" value="1,1" style="text;html=1;align=center;verticalAlign=middle;resizable=0;points=[];autosize=1;strokeColor=none;fillColor=none;" vertex="1" parent="1">
          <mxGeometry x="220" y="760" width="40" height="30" as="geometry" />
        </mxCell>
        <mxCell id="-JztlYJ-ncZ7tDc-gEJn-51" value="1,1" style="text;html=1;align=center;verticalAlign=middle;resizable=0;points=[];autosize=1;strokeColor=none;fillColor=none;" vertex="1" parent="1">
          <mxGeometry x="-480" y="320" width="40" height="30" as="geometry" />
        </mxCell>
        <mxCell id="-JztlYJ-ncZ7tDc-gEJn-52" value="0,*" style="text;html=1;align=center;verticalAlign=middle;resizable=0;points=[];autosize=1;strokeColor=none;fillColor=none;" vertex="1" parent="1">
          <mxGeometry x="-480" y="380" width="40" height="30" as="geometry" />
        </mxCell>
        <mxCell id="-JztlYJ-ncZ7tDc-gEJn-53" value="1,1" style="text;html=1;align=center;verticalAlign=middle;resizable=0;points=[];autosize=1;strokeColor=none;fillColor=none;" vertex="1" parent="1">
          <mxGeometry x="-413" y="200" width="40" height="30" as="geometry" />
        </mxCell>
        <mxCell id="-JztlYJ-ncZ7tDc-gEJn-54" value="0,*" style="text;html=1;align=center;verticalAlign=middle;resizable=0;points=[];autosize=1;strokeColor=none;fillColor=none;" vertex="1" parent="1">
          <mxGeometry x="100" y="210" width="40" height="30" as="geometry" />
        </mxCell>
        <mxCell id="-JztlYJ-ncZ7tDc-gEJn-55" value="1,1" style="text;html=1;align=center;verticalAlign=middle;resizable=0;points=[];autosize=1;strokeColor=none;fillColor=none;" vertex="1" parent="1">
          <mxGeometry x="-413" y="400" width="40" height="30" as="geometry" />
        </mxCell>
        <mxCell id="-JztlYJ-ncZ7tDc-gEJn-56" value="0,*" style="text;html=1;align=center;verticalAlign=middle;resizable=0;points=[];autosize=1;strokeColor=none;fillColor=none;" vertex="1" parent="1">
          <mxGeometry x="80" y="230" width="40" height="30" as="geometry" />
        </mxCell>
        <mxCell id="-JztlYJ-ncZ7tDc-gEJn-60" value="1,1" style="text;html=1;align=center;verticalAlign=middle;resizable=0;points=[];autosize=1;strokeColor=none;fillColor=none;" vertex="1" parent="1">
          <mxGeometry x="-80" y="100" width="40" height="30" as="geometry" />
        </mxCell>
        <mxCell id="-JztlYJ-ncZ7tDc-gEJn-61" value="1,1" style="text;html=1;align=center;verticalAlign=middle;resizable=0;points=[];autosize=1;strokeColor=none;fillColor=none;" vertex="1" parent="1">
          <mxGeometry x="110" y="170" width="40" height="30" as="geometry" />
        </mxCell>
        <mxCell id="YBYOb2V-Wy9qqlrGjkgp-1" value="Users" style="swimlane;fontStyle=0;childLayout=stackLayout;horizontal=1;startSize=30;horizontalStack=0;resizeParent=1;resizeParentMax=0;resizeLast=0;collapsible=1;marginBottom=0;whiteSpace=wrap;html=1;" vertex="1" parent="1">
          <mxGeometry x="20" y="-230" width="140" height="120" as="geometry" />
        </mxCell>
        <mxCell id="YBYOb2V-Wy9qqlrGjkgp-2" value="Item 1" style="text;strokeColor=none;fillColor=none;align=left;verticalAlign=middle;spacingLeft=4;spacingRight=4;overflow=hidden;points=[[0,0.5],[1,0.5]];portConstraint=eastwest;rotatable=0;whiteSpace=wrap;html=1;" vertex="1" parent="YBYOb2V-Wy9qqlrGjkgp-1">
          <mxGeometry y="30" width="140" height="30" as="geometry" />
        </mxCell>
        <mxCell id="YBYOb2V-Wy9qqlrGjkgp-3" value="Item 2" style="text;strokeColor=none;fillColor=none;align=left;verticalAlign=middle;spacingLeft=4;spacingRight=4;overflow=hidden;points=[[0,0.5],[1,0.5]];portConstraint=eastwest;rotatable=0;whiteSpace=wrap;html=1;" vertex="1" parent="YBYOb2V-Wy9qqlrGjkgp-1">
          <mxGeometry y="60" width="140" height="30" as="geometry" />
        </mxCell>
        <mxCell id="YBYOb2V-Wy9qqlrGjkgp-4" value="Item 3" style="text;strokeColor=none;fillColor=none;align=left;verticalAlign=middle;spacingLeft=4;spacingRight=4;overflow=hidden;points=[[0,0.5],[1,0.5]];portConstraint=eastwest;rotatable=0;whiteSpace=wrap;html=1;" vertex="1" parent="YBYOb2V-Wy9qqlrGjkgp-1">
          <mxGeometry y="90" width="140" height="30" as="geometry" />
        </mxCell>
        <mxCell id="YBYOb2V-Wy9qqlrGjkgp-5" value="Products" style="swimlane;fontStyle=0;childLayout=stackLayout;horizontal=1;startSize=30;horizontalStack=0;resizeParent=1;resizeParentMax=0;resizeLast=0;collapsible=1;marginBottom=0;whiteSpace=wrap;html=1;" vertex="1" parent="1">
          <mxGeometry x="410" y="-230" width="140" height="120" as="geometry" />
        </mxCell>
        <mxCell id="YBYOb2V-Wy9qqlrGjkgp-6" value="Item 1" style="text;strokeColor=none;fillColor=none;align=left;verticalAlign=middle;spacingLeft=4;spacingRight=4;overflow=hidden;points=[[0,0.5],[1,0.5]];portConstraint=eastwest;rotatable=0;whiteSpace=wrap;html=1;" vertex="1" parent="YBYOb2V-Wy9qqlrGjkgp-5">
          <mxGeometry y="30" width="140" height="30" as="geometry" />
        </mxCell>
        <mxCell id="YBYOb2V-Wy9qqlrGjkgp-7" value="Item 2" style="text;strokeColor=none;fillColor=none;align=left;verticalAlign=middle;spacingLeft=4;spacingRight=4;overflow=hidden;points=[[0,0.5],[1,0.5]];portConstraint=eastwest;rotatable=0;whiteSpace=wrap;html=1;" vertex="1" parent="YBYOb2V-Wy9qqlrGjkgp-5">
          <mxGeometry y="60" width="140" height="30" as="geometry" />
        </mxCell>
        <mxCell id="YBYOb2V-Wy9qqlrGjkgp-8" value="Item 3" style="text;strokeColor=none;fillColor=none;align=left;verticalAlign=middle;spacingLeft=4;spacingRight=4;overflow=hidden;points=[[0,0.5],[1,0.5]];portConstraint=eastwest;rotatable=0;whiteSpace=wrap;html=1;" vertex="1" parent="YBYOb2V-Wy9qqlrGjkgp-5">
          <mxGeometry y="90" width="140" height="30" as="geometry" />
        </mxCell>
        <mxCell id="YBYOb2V-Wy9qqlrGjkgp-9" value="" style="endArrow=none;html=1;rounded=0;" edge="1" parent="1" source="YBYOb2V-Wy9qqlrGjkgp-1" target="YBYOb2V-Wy9qqlrGjkgp-5">
          <mxGeometry width="50" height="50" relative="1" as="geometry">
            <mxPoint x="180.00000000000003" y="-206.17999999999984" as="sourcePoint" />
            <mxPoint x="254.02" y="-70" as="targetPoint" />
          </mxGeometry>
        </mxCell>
        <mxCell id="YBYOb2V-Wy9qqlrGjkgp-10" value="1,1" style="text;html=1;align=center;verticalAlign=middle;resizable=0;points=[];autosize=1;strokeColor=none;fillColor=none;" vertex="1" parent="1">
          <mxGeometry x="160" y="-212" width="40" height="30" as="geometry" />
        </mxCell>
        <mxCell id="YBYOb2V-Wy9qqlrGjkgp-11" value="0,*" style="text;html=1;align=center;verticalAlign=middle;resizable=0;points=[];autosize=1;strokeColor=none;fillColor=none;" vertex="1" parent="1">
          <mxGeometry x="370" y="-202" width="40" height="30" as="geometry" />
        </mxCell>
        <mxCell id="YBYOb2V-Wy9qqlrGjkgp-12" value="Image" style="swimlane;fontStyle=0;childLayout=stackLayout;horizontal=1;startSize=30;horizontalStack=0;resizeParent=1;resizeParentMax=0;resizeLast=0;collapsible=1;marginBottom=0;whiteSpace=wrap;html=1;" vertex="1" parent="1">
          <mxGeometry x="500" y="910" width="140" height="180" as="geometry" />
        </mxCell>
        <mxCell id="YBYOb2V-Wy9qqlrGjkgp-13" value="idImg" style="text;strokeColor=none;fillColor=none;align=left;verticalAlign=middle;spacingLeft=4;spacingRight=4;overflow=hidden;points=[[0,0.5],[1,0.5]];portConstraint=eastwest;rotatable=0;whiteSpace=wrap;html=1;" vertex="1" parent="YBYOb2V-Wy9qqlrGjkgp-12">
          <mxGeometry y="30" width="140" height="30" as="geometry" />
        </mxCell>
        <mxCell id="YBYOb2V-Wy9qqlrGjkgp-14" value="libelleImg" style="text;strokeColor=none;fillColor=none;align=left;verticalAlign=middle;spacingLeft=4;spacingRight=4;overflow=hidden;points=[[0,0.5],[1,0.5]];portConstraint=eastwest;rotatable=0;whiteSpace=wrap;html=1;" vertex="1" parent="YBYOb2V-Wy9qqlrGjkgp-12">
          <mxGeometry y="60" width="140" height="30" as="geometry" />
        </mxCell>
        <mxCell id="YBYOb2V-Wy9qqlrGjkgp-16" value="statut" style="text;strokeColor=none;fillColor=none;align=left;verticalAlign=middle;spacingLeft=4;spacingRight=4;overflow=hidden;points=[[0,0.5],[1,0.5]];portConstraint=eastwest;rotatable=0;whiteSpace=wrap;html=1;" vertex="1" parent="YBYOb2V-Wy9qqlrGjkgp-12">
          <mxGeometry y="90" width="140" height="30" as="geometry" />
        </mxCell>
        <mxCell id="YBYOb2V-Wy9qqlrGjkgp-17" value="dateAjout" style="text;strokeColor=none;fillColor=none;align=left;verticalAlign=middle;spacingLeft=4;spacingRight=4;overflow=hidden;points=[[0,0.5],[1,0.5]];portConstraint=eastwest;rotatable=0;whiteSpace=wrap;html=1;" vertex="1" parent="YBYOb2V-Wy9qqlrGjkgp-12">
          <mxGeometry y="120" width="140" height="30" as="geometry" />
        </mxCell>
        <mxCell id="YBYOb2V-Wy9qqlrGjkgp-15" value="dateModif" style="text;strokeColor=none;fillColor=none;align=left;verticalAlign=middle;spacingLeft=4;spacingRight=4;overflow=hidden;points=[[0,0.5],[1,0.5]];portConstraint=eastwest;rotatable=0;whiteSpace=wrap;html=1;" vertex="1" parent="YBYOb2V-Wy9qqlrGjkgp-12">
          <mxGeometry y="150" width="140" height="30" as="geometry" />
        </mxCell>
        <mxCell id="YBYOb2V-Wy9qqlrGjkgp-18" value="" style="endArrow=none;html=1;rounded=0;" edge="1" parent="1" source="YBYOb2V-Wy9qqlrGjkgp-12" target="ozoaR8GwcusCpFTj8edA-22">
          <mxGeometry width="50" height="50" relative="1" as="geometry">
            <mxPoint x="540" y="875" as="sourcePoint" />
            <mxPoint x="590" y="825" as="targetPoint" />
          </mxGeometry>
        </mxCell>
        <mxCell id="YBYOb2V-Wy9qqlrGjkgp-19" value="1,1" style="text;html=1;align=center;verticalAlign=middle;resizable=0;points=[];autosize=1;strokeColor=none;fillColor=none;" vertex="1" parent="1">
          <mxGeometry x="570" y="880" width="40" height="30" as="geometry" />
        </mxCell>
        <mxCell id="YBYOb2V-Wy9qqlrGjkgp-20" value="0,*" style="text;html=1;align=center;verticalAlign=middle;resizable=0;points=[];autosize=1;strokeColor=none;fillColor=none;" vertex="1" parent="1">
          <mxGeometry x="590" y="810" width="40" height="30" as="geometry" />
        </mxCell>
      </root>
    </mxGraphModel>
  </diagram>
  <diagram id="vWRqJLCM9maPb8UmuSY9" name="mld">
    <mxGraphModel dx="777" dy="490" grid="1" gridSize="10" guides="1" tooltips="1" connect="1" arrows="1" fold="1" page="1" pageScale="1" pageWidth="827" pageHeight="1169" math="0" shadow="0">
      <root>
        <mxCell id="0" />
        <mxCell id="1" parent="0" />
      </root>
    </mxGraphModel>
  </diagram>
</mxfile>
